<svg width="151" height="145" viewBox="0 0 151 145" fill="none" xmlns="http://www.w3.org/2000/svg">
<rect x="1.79195" y="1" width="148" height="142.04" rx="7" fill="#E4E6EC"/>
<path d="M81.7919 93.5H69.7919C58.9319 93.5 54.2919 88.86 54.2919 78V66C54.2919 55.14 58.9319 50.5 69.7919 50.5H81.7919C92.6519 50.5 97.2919 55.14 97.2919 66V78C97.2919 88.86 92.6519 93.5 81.7919 93.5ZM69.7919 53.5C60.5719 53.5 57.2919 56.78 57.2919 66V78C57.2919 87.22 60.5719 90.5 69.7919 90.5H81.7919C91.0119 90.5 94.2919 87.22 94.2919 78V66C94.2919 56.78 91.0119 53.5 81.7919 53.5H69.7919Z" fill="#6D6D6D"/>
<path d="M69.7919 69.5C66.7519 69.5 64.2919 67.04 64.2919 64C64.2919 60.96 66.7519 58.5 69.7919 58.5C72.8319 58.5 75.2919 60.96 75.2919 64C75.2919 67.04 72.8319 69.5 69.7919 69.5ZM69.7919 61.5C68.4119 61.5 67.2919 62.62 67.2919 64C67.2919 65.38 68.4119 66.5 69.7919 66.5C71.1719 66.5 72.2919 65.38 72.2919 64C72.2919 62.62 71.1719 61.5 69.7919 61.5Z" fill="#6D6D6D"/>
<path d="M57.132 87.4001C56.652 87.4001 56.172 87.1601 55.892 86.7401C55.432 86.0601 55.612 85.1201 56.312 84.6601L66.172 78.0401C68.332 76.5801 71.312 76.7601 73.272 78.4201L73.932 79.0001C74.932 79.8601 76.632 79.8601 77.612 79.0001L85.932 71.8601C88.052 70.0401 91.392 70.0401 93.532 71.8601L96.792 74.6601C97.412 75.2001 97.492 76.1401 96.952 76.7801C96.412 77.4001 95.472 77.4801 94.832 76.9401L91.572 74.1401C90.572 73.2801 88.872 73.2801 87.872 74.1401L79.552 81.2801C77.432 83.1001 74.092 83.1001 71.952 81.2801L71.292 80.7001C70.372 79.9201 68.852 79.8401 67.832 80.5401L57.972 87.1601C57.712 87.3201 57.412 87.4001 57.132 87.4001Z" fill="#6D6D6D"/>
<rect x="1.79195" y="1" width="148" height="142.04" rx="7" stroke="#6D6D6D" stroke-width="2" stroke-dasharray="20 20"/>
</svg>
