<svg width="24" height="25" viewBox="0 0 24 25" fill="none" xmlns="http://www.w3.org/2000/svg">
<path d="M17.6969 12.5911C17.6875 10.9927 18.4117 9.78799 19.8742 8.89971C19.0562 7.72783 17.8188 7.0833 16.1875 6.95908C14.643 6.83721 12.9531 7.85908 12.3344 7.85908C11.6805 7.85908 10.1852 7.00127 9.00859 7.00127C6.58047 7.03877 4 8.93721 4 12.7997C4 13.9411 4.20859 15.12 4.62578 16.3341C5.18359 17.9325 7.19453 21.8489 9.29219 21.7856C10.3891 21.7599 11.1648 21.0075 12.5922 21.0075C13.9773 21.0075 14.6945 21.7856 15.918 21.7856C18.0344 21.7552 19.8531 18.195 20.3828 16.5919C17.5445 15.2536 17.6969 12.6731 17.6969 12.5911ZM15.2336 5.44268C16.4219 4.03174 16.3141 2.74736 16.2789 2.28564C15.2289 2.34658 14.0148 3.00049 13.3234 3.80439C12.5617 4.66689 12.1141 5.7333 12.2102 6.93564C13.3445 7.02236 14.3805 6.43877 15.2336 5.44268Z" fill="black"/>
</svg>
