<svg width="14" height="14" viewBox="0 0 14 14" fill="none" xmlns="http://www.w3.org/2000/svg">
<path d="M6.95345 13.2709C3.50012 13.2709 0.682617 10.4592 0.682617 7.00008C0.682617 3.54091 3.50012 0.729248 6.95345 0.729248C10.4068 0.729248 13.2243 3.54091 13.2243 7.00008C13.2243 10.4592 10.4126 13.2709 6.95345 13.2709ZM6.95345 1.60425C3.97845 1.60425 1.55762 4.02508 1.55762 7.00008C1.55762 9.97508 3.97845 12.3959 6.95345 12.3959C9.92845 12.3959 12.3493 9.97508 12.3493 7.00008C12.3493 4.02508 9.92845 1.60425 6.95345 1.60425Z" fill="#1E1E1E"/>
<path d="M9.28678 7.4375H4.62012C4.38095 7.4375 4.18262 7.23917 4.18262 7C4.18262 6.76083 4.38095 6.5625 4.62012 6.5625H9.28678C9.52595 6.5625 9.72428 6.76083 9.72428 7C9.72428 7.23917 9.53178 7.4375 9.28678 7.4375Z" fill="#1E1E1E"/>
</svg>
