<svg width="24" height="25" viewBox="0 0 24 25" fill="none" xmlns="http://www.w3.org/2000/svg">
<path d="M4.93 23.696C4.51 23.696 4.12 23.596 3.77 23.396C3 22.946 2.56 22.036 2.56 20.906V6.80605C2.56 4.26605 4.63 2.19604 7.17 2.19604H16.82C19.36 2.19604 21.43 4.26605 21.43 6.80605V20.896C21.43 22.026 20.99 22.936 20.22 23.386C19.45 23.836 18.44 23.786 17.45 23.236L12.57 20.526C12.28 20.366 11.71 20.366 11.42 20.526L6.54 23.236C6 23.536 5.45 23.696 4.93 23.696ZM7.18 3.69604C5.47 3.69604 4.07 5.09605 4.07 6.80605V20.896C4.07 21.486 4.24 21.926 4.54 22.096C4.84 22.266 5.31 22.216 5.82 21.926L10.7 19.216C11.44 18.806 12.56 18.806 13.3 19.216L18.18 21.926C18.69 22.216 19.16 22.276 19.46 22.096C19.76 21.916 19.93 21.476 19.93 20.896V6.80605C19.93 5.09605 18.53 3.69604 16.82 3.69604H7.18Z" fill="#CD0683"/>
<path d="M11.09 14.196C10.9 14.196 10.71 14.126 10.56 13.976L9.06003 12.476C8.77003 12.186 8.77003 11.706 9.06003 11.416C9.35003 11.126 9.83003 11.126 10.12 11.416L11.09 12.386L14.56 8.91599C14.85 8.62599 15.33 8.62599 15.62 8.91599C15.91 9.20599 15.91 9.68599 15.62 9.97599L11.62 13.976C11.47 14.126 11.28 14.196 11.09 14.196Z" fill="#CD0683"/>
</svg>
