<svg width="20" height="20" viewBox="0 0 20 20" fill="none" xmlns="http://www.w3.org/2000/svg">
<path d="M14.5417 18.9584C13.6 18.9584 12.6083 18.7334 11.5833 18.3001C10.5833 17.8751 9.57499 17.2917 8.59166 16.5834C7.61666 15.8667 6.67499 15.0667 5.78332 14.1917C4.89999 13.3001 4.09999 12.3584 3.39166 11.3917C2.67499 10.3917 2.09999 9.39175 1.69166 8.42508C1.25832 7.39175 1.04166 6.39175 1.04166 5.45008C1.04166 4.80008 1.15832 4.18341 1.38332 3.60841C1.61666 3.01675 1.99166 2.46675 2.49999 1.99175C3.14166 1.35841 3.87499 1.04175 4.65832 1.04175C4.98332 1.04175 5.31666 1.11675 5.59999 1.25008C5.92499 1.40008 6.19999 1.62508 6.39999 1.92508L8.33332 4.65008C8.50832 4.89175 8.64166 5.12508 8.73332 5.35841C8.84166 5.60841 8.89999 5.85842 8.89999 6.10008C8.89999 6.41675 8.80832 6.72508 8.63332 7.01675C8.50832 7.24175 8.31666 7.48342 8.07499 7.72508L7.50832 8.31675C7.51666 8.34175 7.52499 8.35842 7.53332 8.37508C7.63332 8.55008 7.83332 8.85008 8.21666 9.30008C8.62499 9.76675 9.00832 10.1917 9.39166 10.5834C9.88332 11.0667 10.2917 11.4501 10.675 11.7667C11.15 12.1667 11.4583 12.3667 11.6417 12.4584L11.625 12.5001L12.2333 11.9001C12.4917 11.6417 12.7417 11.4501 12.9833 11.3251C13.4417 11.0417 14.025 10.9917 14.6083 11.2334C14.825 11.3251 15.0583 11.4501 15.3083 11.6251L18.075 13.5917C18.3833 13.8001 18.6083 14.0667 18.7417 14.3834C18.8667 14.7001 18.925 14.9917 18.925 15.2834C18.925 15.6834 18.8333 16.0834 18.6583 16.4584C18.4833 16.8334 18.2667 17.1584 17.9917 17.4584C17.5167 17.9834 17 18.3584 16.4 18.6001C15.825 18.8334 15.2 18.9584 14.5417 18.9584ZM4.65832 2.29175C4.19999 2.29175 3.77499 2.49175 3.36666 2.89175C2.98332 3.25008 2.71666 3.64175 2.54999 4.06675C2.37499 4.50008 2.29166 4.95841 2.29166 5.45008C2.29166 6.22508 2.47499 7.06675 2.84166 7.93342C3.21666 8.81675 3.74166 9.73341 4.40832 10.6501C5.07499 11.5667 5.83332 12.4584 6.66666 13.3001C7.49999 14.1251 8.39999 14.8917 9.32499 15.5667C10.225 16.2251 11.15 16.7584 12.0667 17.1417C13.4917 17.7501 14.825 17.8917 15.925 17.4334C16.35 17.2584 16.725 16.9917 17.0667 16.6084C17.2583 16.4001 17.4083 16.1751 17.5333 15.9084C17.6333 15.7001 17.6833 15.4834 17.6833 15.2667C17.6833 15.1334 17.6583 15.0001 17.5917 14.8501C17.5667 14.8001 17.5167 14.7084 17.3583 14.6001L14.5917 12.6334C14.425 12.5167 14.275 12.4334 14.1333 12.3751C13.95 12.3001 13.875 12.2251 13.5917 12.4001C13.425 12.4834 13.275 12.6084 13.1083 12.7751L12.475 13.4001C12.15 13.7167 11.65 13.7917 11.2667 13.6501L11.0417 13.5501C10.7 13.3667 10.3 13.0834 9.85832 12.7084C9.45832 12.3667 9.02499 11.9667 8.49999 11.4501C8.09166 11.0334 7.68332 10.5917 7.25832 10.1001C6.86666 9.64175 6.58332 9.25008 6.40832 8.92508L6.30832 8.67508C6.25832 8.48342 6.24166 8.37508 6.24166 8.25841C6.24166 7.95842 6.34999 7.69175 6.55832 7.48341L7.18332 6.83342C7.34999 6.66675 7.47499 6.50841 7.55832 6.36675C7.62499 6.25841 7.64999 6.16675 7.64999 6.08342C7.64999 6.01675 7.62499 5.91675 7.58332 5.81675C7.52499 5.68341 7.43332 5.53341 7.31666 5.37508L5.38332 2.64175C5.29999 2.52508 5.19999 2.44175 5.07499 2.38341C4.94166 2.32508 4.79999 2.29175 4.65832 2.29175ZM11.625 12.5084L11.4917 13.0751L11.7167 12.4917C11.675 12.4834 11.6417 12.4917 11.625 12.5084Z" fill="#6D6D6D"/>
</svg>
