<svg width="24" height="25" viewBox="0 0 24 25" fill="none" xmlns="http://www.w3.org/2000/svg">
<path d="M17.2402 23.5H6.76017C3.96017 23.5 2.18017 21.83 2.02017 19.04L1.50017 10.79C1.42017 9.54 1.85017 8.34 2.71017 7.43C3.56017 6.52 4.76017 6 6.00017 6C6.32017 6 6.63017 5.81 6.78017 5.51L7.50017 4.08C8.09017 2.91 9.57017 2 10.8602 2H13.1502C14.4402 2 15.9102 2.91 16.5002 4.07L17.2202 5.53C17.3702 5.81 17.6702 6 18.0002 6C19.2402 6 20.4402 6.52 21.2902 7.43C22.1502 8.35 22.5802 9.54 22.5002 10.79L21.9802 19.05C21.8002 21.88 20.0702 23.5 17.2402 23.5ZM10.8602 3.5C10.1202 3.5 9.18017 4.08 8.84017 4.75L8.12017 6.19C7.70017 7 6.89017 7.5 6.00017 7.5C5.16017 7.5 4.38017 7.84 3.80017 8.45C3.23017 9.06 2.94017 9.86 3.00017 10.69L3.52017 18.95C3.64017 20.97 4.73017 22 6.76017 22H17.2402C19.2602 22 20.3502 20.97 20.4802 18.95L21.0002 10.69C21.0502 9.86 20.7702 9.06 20.2002 8.45C19.6202 7.84 18.8402 7.5 18.0002 7.5C17.1102 7.5 16.3002 7 15.8802 6.21L15.1502 4.75C14.8202 4.09 13.8802 3.51 13.1402 3.51H10.8602V3.5Z" fill="#CD0683"/>
<path d="M13.5 9.5H10.5C10.09 9.5 9.75 9.16 9.75 8.75C9.75 8.34 10.09 8 10.5 8H13.5C13.91 8 14.25 8.34 14.25 8.75C14.25 9.16 13.91 9.5 13.5 9.5Z" fill="#CD0683"/>
<path d="M12 19.5C9.79 19.5 8 17.71 8 15.5C8 13.29 9.79 11.5 12 11.5C14.21 11.5 16 13.29 16 15.5C16 17.71 14.21 19.5 12 19.5ZM12 13C10.62 13 9.5 14.12 9.5 15.5C9.5 16.88 10.62 18 12 18C13.38 18 14.5 16.88 14.5 15.5C14.5 14.12 13.38 13 12 13Z" fill="#CD0683"/>
</svg>
