<svg width="16" height="17" viewBox="0 0 16 17" fill="none" xmlns="http://www.w3.org/2000/svg">
<path d="M14.6667 6.41699H1.33334C1.06001 6.41699 0.833344 6.19033 0.833344 5.91699C0.833344 5.64366 1.06001 5.41699 1.33334 5.41699H14.6667C14.94 5.41699 15.1667 5.64366 15.1667 5.91699C15.1667 6.19033 14.94 6.41699 14.6667 6.41699Z" fill="#292D32"/>
<path d="M5.33333 11.75H4C3.72667 11.75 3.5 11.5233 3.5 11.25C3.5 10.9767 3.72667 10.75 4 10.75H5.33333C5.60667 10.75 5.83333 10.9767 5.83333 11.25C5.83333 11.5233 5.60667 11.75 5.33333 11.75Z" fill="#292D32"/>
<path d="M9.66667 11.75H7C6.72667 11.75 6.5 11.5233 6.5 11.25C6.5 10.9767 6.72667 10.75 7 10.75H9.66667C9.94 10.75 10.1667 10.9767 10.1667 11.25C10.1667 11.5233 9.94 11.75 9.66667 11.75Z" fill="#292D32"/>
<path d="M11.7067 14.4163H4.29334C1.64001 14.4163 0.833344 13.6163 0.833344 10.9897V5.50967C0.833344 2.88301 1.64001 2.08301 4.29334 2.08301H11.7C14.3533 2.08301 15.16 2.88301 15.16 5.50967V10.983C15.1667 13.6163 14.36 14.4163 11.7067 14.4163ZM4.29334 3.08301C2.20001 3.08301 1.83334 3.44301 1.83334 5.50967V10.983C1.83334 13.0497 2.20001 13.4097 4.29334 13.4097H11.7C13.7933 13.4097 14.16 13.0497 14.16 10.983V5.50967C14.16 3.44301 13.7933 3.08301 11.7 3.08301H4.29334Z" fill="#292D32"/>
</svg>
