<svg width="20" height="20" viewBox="0 0 20 20" fill="none" xmlns="http://www.w3.org/2000/svg">
<path d="M5.83332 8.95841H4.16666C2.14999 8.95841 1.04166 7.85008 1.04166 5.83341V4.16675C1.04166 2.15008 2.14999 1.04175 4.16666 1.04175H5.83332C7.84999 1.04175 8.95832 2.15008 8.95832 4.16675V5.83341C8.95832 7.85008 7.84999 8.95841 5.83332 8.95841ZM4.16666 2.29175C2.84999 2.29175 2.29166 2.85008 2.29166 4.16675V5.83341C2.29166 7.15008 2.84999 7.70841 4.16666 7.70841H5.83332C7.14999 7.70841 7.70832 7.15008 7.70832 5.83341V4.16675C7.70832 2.85008 7.14999 2.29175 5.83332 2.29175H4.16666Z" fill="#6D6D6D"/>
<path d="M15.8333 8.95841H14.1667C12.15 8.95841 11.0417 7.85008 11.0417 5.83341V4.16675C11.0417 2.15008 12.15 1.04175 14.1667 1.04175H15.8333C17.85 1.04175 18.9583 2.15008 18.9583 4.16675V5.83341C18.9583 7.85008 17.85 8.95841 15.8333 8.95841ZM14.1667 2.29175C12.85 2.29175 12.2917 2.85008 12.2917 4.16675V5.83341C12.2917 7.15008 12.85 7.70841 14.1667 7.70841H15.8333C17.15 7.70841 17.7083 7.15008 17.7083 5.83341V4.16675C17.7083 2.85008 17.15 2.29175 15.8333 2.29175H14.1667Z" fill="#6D6D6D"/>
<path d="M15.8333 18.9584H14.1667C12.15 18.9584 11.0417 17.8501 11.0417 15.8334V14.1667C11.0417 12.1501 12.15 11.0417 14.1667 11.0417H15.8333C17.85 11.0417 18.9583 12.1501 18.9583 14.1667V15.8334C18.9583 17.8501 17.85 18.9584 15.8333 18.9584ZM14.1667 12.2917C12.85 12.2917 12.2917 12.8501 12.2917 14.1667V15.8334C12.2917 17.1501 12.85 17.7084 14.1667 17.7084H15.8333C17.15 17.7084 17.7083 17.1501 17.7083 15.8334V14.1667C17.7083 12.8501 17.15 12.2917 15.8333 12.2917H14.1667Z" fill="#6D6D6D"/>
<path d="M5.83332 18.9584H4.16666C2.14999 18.9584 1.04166 17.8501 1.04166 15.8334V14.1667C1.04166 12.1501 2.14999 11.0417 4.16666 11.0417H5.83332C7.84999 11.0417 8.95832 12.1501 8.95832 14.1667V15.8334C8.95832 17.8501 7.84999 18.9584 5.83332 18.9584ZM4.16666 12.2917C2.84999 12.2917 2.29166 12.8501 2.29166 14.1667V15.8334C2.29166 17.1501 2.84999 17.7084 4.16666 17.7084H5.83332C7.14999 17.7084 7.70832 17.1501 7.70832 15.8334V14.1667C7.70832 12.8501 7.14999 12.2917 5.83332 12.2917H4.16666Z" fill="#6D6D6D"/>
</svg>
