<svg width="58" height="58" viewBox="0 0 58 58" fill="none" xmlns="http://www.w3.org/2000/svg">
<circle cx="29" cy="29" r="29" fill="#CD0683"/>
<path d="M29.4875 45.475C28.7375 45.475 28.025 45.1 27.5375 44.4375L26.0375 42.4375C26.0375 42.45 25.975 42.4125 25.95 42.4125H25.4875C21.2125 42.4125 18.5625 41.25 18.5625 35.4875V30.4875C18.5625 25.225 21.775 23.85 24.475 23.6125C24.775 23.575 25.125 23.5625 25.4875 23.5625H33.4875C38.0125 23.5625 40.4125 25.9625 40.4125 30.4875V35.4875C40.4125 35.85 40.4 36.2 40.35 36.5375C40.125 39.2 38.75 42.4125 33.4875 42.4125H32.9875L31.4375 44.4375C30.95 45.1 30.2375 45.475 29.4875 45.475ZM25.4875 25.4375C25.2 25.4375 24.925 25.45 24.6625 25.475C21.7625 25.725 20.4375 27.3125 20.4375 30.4875V35.4875C20.4375 39.775 21.7625 40.5375 25.4875 40.5375H25.9875C26.55 40.5375 27.1875 40.85 27.5375 41.3L29.0375 43.3125C29.3125 43.6875 29.6625 43.6875 29.9375 43.3125L31.4375 41.3125C31.8 40.825 32.375 40.5375 32.9875 40.5375H33.4875C36.6625 40.5375 38.25 39.2 38.4875 36.35C38.525 36.05 38.5375 35.775 38.5375 35.4875V30.4875C38.5375 27 36.975 25.4375 33.4875 25.4375H25.4875Z" fill="white"/>
<path d="M29.4878 34.7375C28.7878 34.7375 28.2378 34.175 28.2378 33.4875C28.2378 32.8 28.8003 32.2375 29.4878 32.2375C30.1753 32.2375 30.7378 32.8 30.7378 33.4875C30.7378 34.175 30.1878 34.7375 29.4878 34.7375Z" fill="white"/>
<path d="M33.4874 34.7375C32.7874 34.7375 32.2374 34.175 32.2374 33.4875C32.2374 32.8 32.7999 32.2375 33.4874 32.2375C34.1749 32.2375 34.7374 32.8 34.7374 33.4875C34.7374 34.175 34.1749 34.7375 33.4874 34.7375Z" fill="white"/>
<path d="M25.4998 34.7375C24.7998 34.7375 24.2498 34.175 24.2498 33.4875C24.2498 32.8 24.8123 32.2375 25.4998 32.2375C26.1873 32.2375 26.7498 32.8 26.7498 33.4875C26.7498 34.175 26.1873 34.7375 25.4998 34.7375Z" fill="white"/>
<path d="M39.4252 37.3625C39.1752 37.3625 38.9252 37.2625 38.7502 37.075C38.5502 36.875 38.4627 36.5875 38.5002 36.3125C38.5377 36.05 38.5502 35.775 38.5502 35.4875V30.4875C38.5502 27 36.9877 25.4375 33.5002 25.4375H25.5002C25.2127 25.4375 24.9377 25.45 24.6752 25.475C24.4002 25.5125 24.1127 25.4125 23.9127 25.225C23.7127 25.025 23.6002 24.75 23.6252 24.475C23.8502 21.775 25.2377 18.5625 30.5002 18.5625H38.5002C43.0252 18.5625 45.4252 20.9625 45.4252 25.4875V30.4875C45.4252 35.75 42.2127 37.125 39.5127 37.3625C39.4752 37.3625 39.4502 37.3625 39.4252 37.3625ZM25.6502 23.5625H33.4877C38.0127 23.5625 40.4127 25.9625 40.4127 30.4875V35.325C42.5377 34.8 43.5377 33.2375 43.5377 30.4875V25.4875C43.5377 22 41.9752 20.4375 38.4877 20.4375H30.4877C27.7377 20.4375 26.1877 21.4375 25.6502 23.5625Z" fill="white"/>
</svg>
