<svg width="16" height="17" viewBox="0 0 16 17" fill="none" xmlns="http://www.w3.org/2000/svg">
<path d="M10 8.88379H5.33334C5.06001 8.88379 4.83334 8.65712 4.83334 8.38379C4.83334 8.11046 5.06001 7.88379 5.33334 7.88379H10C10.2733 7.88379 10.5 8.11046 10.5 8.38379C10.5 8.65712 10.2733 8.88379 10 8.88379Z" fill="#101010"/>
<path d="M8.25334 11.5498H5.33334C5.06001 11.5498 4.83334 11.3231 4.83334 11.0498C4.83334 10.7765 5.06001 10.5498 5.33334 10.5498H8.25334C8.52668 10.5498 8.75334 10.7765 8.75334 11.0498C8.75334 11.3231 8.52668 11.5498 8.25334 11.5498Z" fill="#101010"/>
<path d="M9.33334 4.74967H6.66668C6.02668 4.74967 4.83334 4.74967 4.83334 2.91634C4.83334 1.08301 6.02668 1.08301 6.66668 1.08301H9.33334C9.97334 1.08301 11.1667 1.08301 11.1667 2.91634C11.1667 3.55634 11.1667 4.74967 9.33334 4.74967ZM6.66668 2.08301C6.00668 2.08301 5.83334 2.08301 5.83334 2.91634C5.83334 3.74967 6.00668 3.74967 6.66668 3.74967H9.33334C10.1667 3.74967 10.1667 3.57634 10.1667 2.91634C10.1667 2.08301 9.99334 2.08301 9.33334 2.08301H6.66668Z" fill="#101010"/>
<path d="M10 15.4169H6C2.25333 15.4169 1.5 13.6969 1.5 10.9169V6.91695C1.5 3.87695 2.6 2.57695 5.30667 2.43695C5.57333 2.42361 5.82 2.63028 5.83333 2.91028C5.84667 3.19028 5.63333 3.41695 5.36 3.43028C3.46667 3.53695 2.5 4.10361 2.5 6.91695V10.9169C2.5 13.3836 2.98667 14.4169 6 14.4169H10C13.0133 14.4169 13.5 13.3836 13.5 10.9169V6.91695C13.5 4.10361 12.5333 3.53695 10.64 3.43028C10.3667 3.41695 10.1533 3.17695 10.1667 2.90361C10.18 2.63028 10.42 2.41695 10.6933 2.43028C13.4 2.57695 14.5 3.87695 14.5 6.91028V10.9103C14.5 13.6969 13.7467 15.4169 10 15.4169Z" fill="#101010"/>
</svg>
