<svg width="24" height="25" viewBox="0 0 24 25" fill="none" xmlns="http://www.w3.org/2000/svg">
<path d="M15.26 23H8.73998C3.82998 23 1.72998 20.9 1.72998 15.99V15.86C1.72998 11.42 3.47998 9.28003 7.39998 8.91003C7.79998 8.88003 8.17998 9.18003 8.21998 9.59003C8.25998 10 7.95998 10.37 7.53998 10.41C4.39998 10.7 3.22998 12.18 3.22998 15.87V16C3.22998 20.07 4.66998 21.51 8.73998 21.51H15.26C19.33 21.51 20.77 20.07 20.77 16V15.87C20.77 12.16 19.58 10.68 16.38 10.41C15.97 10.37 15.66 10.01 15.7 9.60003C15.74 9.19003 16.09 8.88003 16.51 8.92003C20.49 9.26003 22.27 11.41 22.27 15.88V16.01C22.27 20.9 20.17 23 15.26 23Z" fill="#CD0683"/>
<path d="M12 16.5C11.59 16.5 11.25 16.16 11.25 15.75V4.37C11.25 3.96 11.59 3.62 12 3.62C12.41 3.62 12.75 3.96 12.75 4.37V15.75C12.75 16.16 12.41 16.5 12 16.5Z" fill="#CD0683"/>
<path d="M15.3501 7.35C15.1601 7.35 14.9701 7.28 14.8201 7.13L12.0001 4.31L9.18009 7.13C8.89009 7.42 8.41009 7.42 8.12009 7.13C7.83009 6.84 7.83009 6.36 8.12009 6.07L11.4701 2.72C11.7601 2.43 12.2401 2.43 12.5301 2.72L15.8801 6.07C16.1701 6.36 16.1701 6.84 15.8801 7.13C15.7401 7.28 15.5401 7.35 15.3501 7.35Z" fill="#CD0683"/>
</svg>
