<svg width="14" height="14" viewBox="0 0 14 14" fill="none" xmlns="http://www.w3.org/2000/svg">
<path d="M3.00439 13.2709C2.76523 13.2709 2.56689 13.0726 2.56689 12.8334V1.16675C2.56689 0.927581 2.76523 0.729248 3.00439 0.729248C3.24356 0.729248 3.44189 0.927581 3.44189 1.16675V12.8334C3.44189 13.0726 3.24356 13.2709 3.00439 13.2709Z" fill="#1E1E1E"/>
<path d="M9.53773 9.77075H3.00439C2.76523 9.77075 2.56689 9.57242 2.56689 9.33325C2.56689 9.09409 2.76523 8.89575 3.00439 8.89575H9.53773C10.1736 8.89575 10.4711 8.72658 10.5294 8.58075C10.5877 8.43492 10.5002 8.10825 10.0452 7.65909L9.34523 6.95909C9.0594 6.70825 8.88439 6.32909 8.86689 5.90909C8.84939 5.46575 9.0244 5.02825 9.34523 4.70742L10.0452 4.00742C10.4769 3.57575 10.6111 3.22575 10.5469 3.07409C10.4827 2.92242 10.1502 2.77075 9.53773 2.77075H3.00439C2.75939 2.77075 2.56689 2.57242 2.56689 2.33325C2.56689 2.09409 2.76523 1.89575 3.00439 1.89575H9.53773C10.8152 1.89575 11.2236 2.42659 11.3577 2.74159C11.4861 3.05659 11.5736 3.72159 10.6636 4.63159L9.96356 5.33159C9.81773 5.47742 9.73606 5.68159 9.7419 5.88575C9.74773 6.06075 9.81773 6.21825 9.94023 6.32909L10.6636 7.04659C11.5561 7.93909 11.4686 8.60408 11.3402 8.92492C11.2061 9.23409 10.7919 9.77075 9.53773 9.77075Z" fill="#1E1E1E"/>
</svg>
