<svg width="16" height="17" viewBox="0 0 16 17" fill="none" xmlns="http://www.w3.org/2000/svg">
<g clip-path="url(#clip0_38_1295)">
<path d="M15.9924 8.62638C15.9924 7.9555 15.9379 7.46594 15.8201 6.95825H8.15936V9.98625H12.656C12.5654 10.7388 12.0759 11.872 10.9879 12.6335L10.9727 12.7349L13.3949 14.6113L13.5627 14.6281C15.1039 13.2047 15.9924 11.1104 15.9924 8.62638Z" fill="#4285F4"/>
<path d="M8.15936 16.6043C10.3624 16.6043 12.2118 15.879 13.5627 14.628L10.9879 12.6334C10.2989 13.1139 9.37418 13.4493 8.15936 13.4493C6.00168 13.4493 4.17036 12.026 3.51755 10.0587L3.42186 10.0668L0.903238 12.016L0.8703 12.1076C2.21205 14.773 4.96811 16.6043 8.15936 16.6043Z" fill="#34A853"/>
<path d="M3.51756 10.0588C3.34531 9.55111 3.24562 9.00711 3.24562 8.44505C3.24562 7.88293 3.34531 7.33899 3.5085 6.8313L3.50394 6.72318L0.95375 4.74268L0.870312 4.78236C0.317313 5.88843 0 7.13049 0 8.44505C0 9.75961 0.317313 11.0016 0.870312 12.1077L3.51756 10.0588Z" fill="#FBBC05"/>
<path d="M8.15936 3.44058C9.69149 3.44058 10.725 4.10239 11.3143 4.65546L13.6171 2.40708C12.2028 1.09252 10.3624 0.285645 8.15936 0.285645C4.96811 0.285645 2.21205 2.11696 0.8703 4.78233L3.50849 6.83127C4.17036 4.86396 6.00168 3.44058 8.15936 3.44058Z" fill="#EB4335"/>
</g>
<defs>
<clipPath id="clip0_38_1295">
<rect width="16" height="16.375" fill="white" transform="translate(0 0.285645)"/>
</clipPath>
</defs>
</svg>
