<svg width="24" height="25" viewBox="0 0 24 25" fill="none" xmlns="http://www.w3.org/2000/svg">
<path d="M12 22.5961C11.69 22.5961 11.39 22.5561 11.14 22.4661C7.32 21.1561 1.25 16.5061 1.25 9.63614C1.25 6.13614 4.08 3.29614 7.56 3.29614C9.25 3.29614 10.83 3.95614 12 5.13614C13.17 3.95614 14.75 3.29614 16.44 3.29614C19.92 3.29614 22.75 6.14614 22.75 9.63614C22.75 16.5161 16.68 21.1561 12.86 22.4661C12.61 22.5561 12.31 22.5961 12 22.5961ZM7.56 4.79614C4.91 4.79614 2.75 6.96614 2.75 9.63614C2.75 16.4661 9.32 20.2661 11.63 21.0561C11.81 21.1161 12.2 21.1161 12.38 21.0561C14.68 20.2661 21.26 16.4761 21.26 9.63614C21.26 6.96614 19.1 4.79614 16.45 4.79614C14.93 4.79614 13.52 5.50614 12.61 6.73614C12.33 7.11614 11.69 7.11614 11.41 6.73614C10.48 5.49614 9.08 4.79614 7.56 4.79614Z" fill="#CD0683"/>
</svg>
