<svg width="58" height="58" viewBox="0 0 58 58" fill="none" xmlns="http://www.w3.org/2000/svg">
<circle cx="29" cy="29" r="29" fill="#CD0683"/>
<path d="M29 37.4375C28.4875 37.4375 28.0625 37.0125 28.0625 36.5V32.75C28.0625 32.2375 28.4875 31.8125 29 31.8125C29.5125 31.8125 29.9375 32.2375 29.9375 32.75V36.5C29.9375 37.0125 29.5125 37.4375 29 37.4375Z" fill="white"/>
<path d="M36 42.2H22C19.725 42.2 17.65 40.45 17.275 38.2125L15.6125 28.25C15.3375 26.7 16.1 24.7125 17.3375 23.725L26 16.7875C27.675 15.4375 30.3125 15.45 32 16.8L40.6625 23.725C41.8875 24.7125 42.6375 26.7 42.3875 28.25L40.725 38.2C40.35 40.4125 38.225 42.2 36 42.2ZM28.9875 17.6625C28.325 17.6625 27.6625 17.8625 27.175 18.25L18.5125 25.2C17.8125 25.7625 17.3125 27.0625 17.4625 27.95L19.125 37.9C19.35 39.2125 20.6625 40.325 22 40.325H36C37.3375 40.325 38.65 39.2125 38.875 37.8875L40.5375 27.9375C40.675 27.0625 40.175 25.7375 39.4875 25.1875L30.825 18.2625C30.325 17.8625 29.65 17.6625 28.9875 17.6625Z" fill="white"/>
</svg>
