<svg width="30" height="30" viewBox="0 0 30 30" fill="none" xmlns="http://www.w3.org/2000/svg">
<path d="M15 23.4375C14.4875 23.4375 14.0625 23.0125 14.0625 22.5V18.75C14.0625 18.2375 14.4875 17.8125 15 17.8125C15.5125 17.8125 15.9375 18.2375 15.9375 18.75V22.5C15.9375 23.0125 15.5125 23.4375 15 23.4375Z" fill="#6D6D6D"/>
<path d="M22 28.2H8.00001C5.72501 28.2 3.65001 26.45 3.27501 24.2125L1.61251 14.25C1.33751 12.7 2.10001 10.7125 3.33751 9.72502L12 2.78752C13.675 1.43752 16.3125 1.45002 18 2.80002L26.6625 9.72502C27.8875 10.7125 28.6375 12.7 28.3875 14.25L26.725 24.2C26.35 26.4125 24.225 28.2 22 28.2ZM14.9875 3.66252C14.325 3.66252 13.6625 3.86252 13.175 4.25002L4.51251 11.2C3.81251 11.7625 3.31251 13.0625 3.46251 13.95L5.12501 23.9C5.35001 25.2125 6.66251 26.325 8.00001 26.325H22C23.3375 26.325 24.65 25.2125 24.875 23.8875L26.5375 13.9375C26.675 13.0625 26.175 11.7375 25.4875 11.1875L16.825 4.26252C16.325 3.86252 15.65 3.66252 14.9875 3.66252Z" fill="#6D6D6D"/>
</svg>
