<svg width="16" height="17" viewBox="0 0 16 17" fill="none" xmlns="http://www.w3.org/2000/svg">
<path d="M12.3445 1.59369H5.256C4.56381 1.59369 3.62625 1.4721 3.14608 2.08977C2.86152 2.45583 2.86152 2.99627 2.86152 4.07716C2.86152 4.94262 4.0262 5.59109 4.01311 5.92387C4 6.25701 2.86152 6.92161 2.86152 7.80811V11.9381C2.86152 12.3337 2.67464 12.6402 2.50645 12.9891C2.08983 13.8533 1.88152 14.2854 2.06979 14.6014C2.25806 14.9173 2.72386 14.9173 3.65545 14.9173H10.5692C11.7804 14.9173 12.386 14.9173 12.7622 14.5271C13.1385 14.1368 13.1385 13.5088 13.1385 12.2526V4.57294C13.1385 4.17726 13.3254 3.87078 13.4935 3.5219C13.9102 2.65769 14.1185 2.22559 13.9302 1.90964C13.7419 1.59369 13.2761 1.59369 12.3445 1.59369Z" stroke="#101010" stroke-linecap="round"/>
<path d="M10 12.25H6" stroke="#101010" stroke-linecap="round"/>
<path d="M8.99999 5.25C8.99999 5.80228 8.55227 6.25 7.99999 6.25C7.4477 6.25 6.99999 5.80228 6.99999 5.25C6.99999 4.69772 7.4477 4.25 7.99999 4.25C8.55227 4.25 8.99999 4.69772 8.99999 5.25Z" stroke="#101010"/>
<path d="M6.59418 7.95373C6.22738 8.16433 5.26568 8.59436 5.85142 9.13247C6.13755 9.39534 6.45623 9.58333 6.85688 9.58333H9.1431C9.54375 9.58333 9.86243 9.39534 10.1486 9.13247C10.7343 8.59436 9.7726 8.16433 9.4058 7.95373C8.54568 7.45987 7.4543 7.45987 6.59418 7.95373Z" stroke="#101010"/>
</svg>
