<svg width="124" height="79" viewBox="0 0 124 79" fill="none" xmlns="http://www.w3.org/2000/svg">
<path d="M53.7539 13.1666C54.4701 13.583 54.7131 14.5011 54.2968 15.2173C53.8804 15.9334 52.9623 16.1765 52.2461 15.7601L53.7539 13.1666ZM1.57129 15.9008C0.777416 15.664 0.325798 14.8285 0.562569 14.0346L4.42097 1.09775C4.65775 0.303883 5.49324 -0.147736 6.28712 0.089035C7.08099 0.325806 7.5326 1.16131 7.29583 1.95518L3.86614 13.4546L15.3656 16.8843C16.1595 17.1211 16.6111 17.9566 16.3743 18.7505C16.1375 19.5443 15.302 19.9959 14.5082 19.7592L1.57129 15.9008ZM52.2461 15.7601C41.6198 9.58208 33.7854 7.22829 26.4354 7.52467C19.0512 7.82242 11.9346 10.7984 2.71327 15.7829L1.28673 13.1438C10.5654 8.12832 18.1988 4.85435 26.3146 4.5271C34.4646 4.19847 42.8802 6.84465 53.7539 13.1666L52.2461 15.7601Z" fill="white"/>
<path d="M70.2461 13.1666C69.5299 13.583 69.2869 14.5011 69.7032 15.2173C70.1196 15.9334 71.0377 16.1765 71.7539 15.7601L70.2461 13.1666ZM122.429 15.9008C123.223 15.664 123.674 14.8285 123.437 14.0346L119.579 1.09775C119.342 0.303883 118.507 -0.147736 117.713 0.089035C116.919 0.325806 116.467 1.16131 116.704 1.95518L120.134 13.4546L108.634 16.8843C107.841 17.1211 107.389 17.9566 107.626 18.7505C107.862 19.5443 108.698 19.9959 109.492 19.7592L122.429 15.9008ZM71.7539 15.7601C82.3802 9.58208 90.2146 7.22829 97.5646 7.52467C104.949 7.82242 112.065 10.7984 121.287 15.7829L122.713 13.1438C113.435 8.12832 105.801 4.85435 97.6854 4.5271C89.5354 4.19847 81.1198 6.84465 70.2461 13.1666L71.7539 15.7601Z" fill="white"/>
<path d="M54.5948 33.4634C55.1915 33.4634 55.7638 33.7004 56.1858 34.1224C56.6077 34.5443 56.8448 35.1166 56.8448 35.7134V54.4634C56.8448 54.8612 57.0028 55.2427 57.2841 55.524C57.5654 55.8053 57.947 55.9634 58.3448 55.9634C58.7426 55.9634 59.1242 55.8053 59.4055 55.524C59.6868 55.2427 59.8448 54.8612 59.8448 54.4634V46.8644L60.1028 46.8524C61.0538 46.8164 62.0138 46.8284 62.5508 46.9334C62.9528 47.0144 63.4328 47.2214 63.8948 47.4794C64.1258 47.6054 64.3448 47.9204 64.3448 48.4214V54.4634C64.3448 54.8612 64.5028 55.2427 64.7841 55.524C65.0654 55.8053 65.447 55.9634 65.8448 55.9634C66.2426 55.9634 66.6242 55.8053 66.9055 55.524C67.1868 55.2427 67.3448 54.8612 67.3448 54.4634V49.7684C67.4507 49.7572 67.5567 49.7472 67.6628 49.7384C68.6108 49.6664 69.4148 49.7084 69.7868 49.8584C70.1408 49.9964 70.6868 50.4794 71.2448 51.1484C71.4878 51.4364 71.6948 51.7184 71.8448 51.9254V55.9634C71.8448 56.3612 72.0028 56.7427 72.2841 57.024C72.5654 57.3053 72.947 57.4634 73.3448 57.4634C73.7426 57.4634 74.1242 57.3053 74.4055 57.024C74.6868 56.7427 74.8448 56.3612 74.8448 55.9634V52.9634H75.8708C76.2901 52.9634 76.7047 53.0513 77.0879 53.2213C77.4711 53.3914 77.8144 53.64 78.0957 53.9509C78.3769 54.2618 78.5899 54.6283 78.7208 55.0266C78.8517 55.4249 78.8977 55.8462 78.8558 56.2634L78.0428 64.4084C77.9378 65.4551 77.6138 66.468 77.0918 67.3814L72.9068 74.7074C72.7757 74.937 72.5862 75.1278 72.3575 75.2606C72.1289 75.3933 71.8692 75.4633 71.6048 75.4634H52.4498C52.2028 75.4633 51.9596 75.4021 51.7419 75.2854C51.5242 75.1687 51.3387 75 51.2018 74.7944L46.9028 68.3444C46.5036 67.7462 46.2537 67.0611 46.1738 66.3464L45.1388 57.0314C45.097 56.6581 45.1967 56.2826 45.4184 55.9793C45.64 55.676 45.9674 55.4669 46.3358 55.3934L49.3448 54.7934V57.4634C49.3448 57.8612 49.5028 58.2427 49.7841 58.524C50.0654 58.8053 50.447 58.9634 50.8448 58.9634C51.2426 58.9634 51.6242 58.8053 51.9055 58.524C52.1868 58.2427 52.3448 57.8612 52.3448 57.4634V35.7134C52.3448 35.1166 52.5819 34.5443 53.0038 34.1224C53.4258 33.7004 53.9981 33.4634 54.5948 33.4634ZM59.8448 43.8614V35.7134C59.8448 34.321 59.2917 32.9856 58.3071 32.0011C57.3225 31.0165 55.9872 30.4634 54.5948 30.4634C53.2024 30.4634 51.8671 31.0165 50.8825 32.0011C49.8979 32.9856 49.3448 34.321 49.3448 35.7134V51.7334L45.7448 52.4534C44.6413 52.6746 43.6608 53.3013 42.9966 54.2098C42.3324 55.1184 42.0328 56.2428 42.1568 57.3614L43.1918 66.6794C43.3249 67.8705 43.7415 69.0124 44.4068 70.0094L48.7058 76.4594C49.1167 77.0758 49.6734 77.5812 50.3265 77.9308C50.9797 78.2804 51.709 78.4633 52.4498 78.4634H71.6048C72.398 78.4631 73.177 78.2532 73.863 77.8549C74.5489 77.4566 75.1174 76.8841 75.5108 76.1954L79.6958 68.8724C80.4274 67.5923 80.8813 66.1725 81.0278 64.7054L81.8408 56.5604C81.9242 55.7263 81.8319 54.884 81.5699 54.0877C81.3078 53.2915 80.8818 52.559 80.3194 51.9374C79.7569 51.3159 79.0704 50.8191 78.3042 50.4791C77.538 50.1391 76.7091 49.9634 75.8708 49.9634H74.1278C73.9405 49.7094 73.7454 49.4613 73.5428 49.2194C72.9698 48.5324 72.0128 47.5154 70.9028 47.0714C69.8108 46.6334 68.3648 46.6754 67.4288 46.7474L67.0328 46.7834C66.7134 45.9658 66.1194 45.2848 65.3528 44.8574C64.6626 44.4593 63.9162 44.168 63.1388 43.9934C62.2088 43.8074 60.9218 43.8194 59.9888 43.8554L59.8448 43.8614Z" fill="#CD0683"/>
</svg>
