<svg width="16" height="17" viewBox="0 0 16 17" fill="none" xmlns="http://www.w3.org/2000/svg">
<path d="M11.3265 6.72363H4.67319C4.39985 6.72363 4.17319 6.49697 4.17319 6.22363C4.17319 5.9503 4.39985 5.72363 4.67319 5.72363H11.3265C11.5998 5.72363 11.8265 5.9503 11.8265 6.22363C11.8265 6.49697 11.5998 6.72363 11.3265 6.72363Z" fill="#101010"/>
<path d="M8 6.72351C7.72667 6.72351 7.5 6.49684 7.5 6.22351V5.10352C7.5 4.83018 7.72667 4.60352 8 4.60352C8.27333 4.60352 8.5 4.83018 8.5 5.10352V6.22351C8.5 6.49684 8.27333 6.72351 8 6.72351Z" fill="#101010"/>
<path d="M4.66666 11.8966C4.39332 11.8966 4.16666 11.6699 4.16666 11.3966C4.16666 11.1233 4.39332 10.8966 4.66666 10.8966C7.14666 10.8966 9.16666 8.79663 9.16666 6.20996C9.16666 5.93663 9.39332 5.70996 9.66666 5.70996C9.93999 5.70996 10.1667 5.93663 10.1667 6.20996C10.1667 9.34996 7.69999 11.8966 4.66666 11.8966Z" fill="#101010"/>
<path d="M11.3335 11.8968C10.0202 11.8968 8.80015 11.2435 7.90682 10.0502C7.74015 9.83018 7.78683 9.51686 8.00683 9.35019C8.22683 9.18352 8.54016 9.23017 8.70682 9.45017C9.41349 10.3835 10.3468 10.8968 11.3402 10.8968C11.6135 10.8968 11.8402 11.1235 11.8402 11.3968C11.8402 11.6702 11.6068 11.8968 11.3335 11.8968Z" fill="#101010"/>
<path d="M10 15.4163H6.00001C2.38001 15.4163 0.833344 13.8697 0.833344 10.2497V6.24967C0.833344 2.62967 2.38001 1.08301 6.00001 1.08301H10C13.62 1.08301 15.1667 2.62967 15.1667 6.24967V10.2497C15.1667 13.8697 13.62 15.4163 10 15.4163ZM6.00001 2.08301C2.92668 2.08301 1.83334 3.17634 1.83334 6.24967V10.2497C1.83334 13.323 2.92668 14.4163 6.00001 14.4163H10C13.0733 14.4163 14.1667 13.323 14.1667 10.2497V6.24967C14.1667 3.17634 13.0733 2.08301 10 2.08301H6.00001Z" fill="#101010"/>
</svg>
