<svg width="58" height="58" viewBox="0 0 58 58" fill="none" xmlns="http://www.w3.org/2000/svg">
<circle cx="29" cy="29" r="29" fill="#CD0683"/>
<path d="M25.2375 40.8749C23.1625 40.8749 21.075 40.0874 19.4875 38.4999C16.325 35.3249 16.325 30.1749 19.4875 27.0124C19.85 26.6499 20.45 26.6499 20.8125 27.0124C21.175 27.3749 21.175 27.9749 20.8125 28.3374C18.375 30.7749 18.375 34.7374 20.8125 37.1749C23.25 39.6124 27.2125 39.6124 29.65 37.1749C30.825 35.9999 31.475 34.4249 31.475 32.7499C31.475 31.0874 30.825 29.5124 29.65 28.3249C29.2875 27.9624 29.2875 27.3624 29.65 26.9999C30.0125 26.6374 30.6125 26.6374 30.975 26.9999C32.5125 28.5374 33.35 30.5749 33.35 32.7499C33.35 34.9249 32.5 36.9624 30.975 38.4999C29.4 40.0874 27.325 40.8749 25.2375 40.8749Z" fill="white"/>
<path d="M37.8375 31.7C37.6 31.7 37.3625 31.6125 37.175 31.425C36.8125 31.0625 36.8125 30.4625 37.175 30.1C39.7375 27.5375 39.7375 23.375 37.175 20.825C34.6125 18.2625 30.45 18.2625 27.9 20.825C26.6625 22.0625 25.975 23.7125 25.975 25.4625C25.975 27.2125 26.6625 28.8625 27.9 30.1C28.2625 30.4625 28.2625 31.0625 27.9 31.425C27.5375 31.7875 26.9375 31.7875 26.575 31.425C24.9875 29.8375 24.1 27.7125 24.1 25.4625C24.1 23.2125 24.975 21.0875 26.575 19.5C29.8625 16.2125 35.2125 16.2125 38.5125 19.5C41.8 22.7875 41.8 28.15 38.5125 31.4375C38.325 31.6125 38.075 31.7 37.8375 31.7Z" fill="white"/>
</svg>
