<svg width="30" height="30" viewBox="0 0 30 30" fill="none" xmlns="http://www.w3.org/2000/svg">
<path d="M11.2375 26.8749C9.16251 26.8749 7.07501 26.0874 5.48751 24.4999C2.32501 21.3249 2.32501 16.1749 5.48751 13.0124C5.85001 12.6499 6.45001 12.6499 6.81251 13.0124C7.17501 13.3749 7.17501 13.9749 6.81251 14.3374C4.37501 16.7749 4.37501 20.7374 6.81251 23.1749C9.25001 25.6124 13.2125 25.6124 15.65 23.1749C16.825 21.9999 17.475 20.4249 17.475 18.7499C17.475 17.0874 16.825 15.5124 15.65 14.3249C15.2875 13.9624 15.2875 13.3624 15.65 12.9999C16.0125 12.6374 16.6125 12.6374 16.975 12.9999C18.5125 14.5374 19.35 16.5749 19.35 18.7499C19.35 20.9249 18.5 22.9624 16.975 24.4999C15.4 26.0874 13.325 26.8749 11.2375 26.8749Z" fill="#6D6D6D"/>
<path d="M23.8375 17.7C23.6 17.7 23.3625 17.6125 23.175 17.425C22.8125 17.0625 22.8125 16.4625 23.175 16.1C25.7375 13.5375 25.7375 9.37505 23.175 6.82505C20.6125 4.26255 16.45 4.26255 13.9 6.82505C12.6625 8.06255 11.975 9.71255 11.975 11.4625C11.975 13.2125 12.6625 14.8625 13.9 16.1C14.2625 16.4625 14.2625 17.0625 13.9 17.425C13.5375 17.7875 12.9375 17.7875 12.575 17.425C10.9875 15.8375 10.1 13.7125 10.1 11.4625C10.1 9.21255 10.975 7.08755 12.575 5.50005C15.8625 2.21255 21.2125 2.21255 24.5125 5.50005C27.8 8.78755 27.8 14.15 24.5125 17.4375C24.325 17.6125 24.075 17.7 23.8375 17.7Z" fill="#6D6D6D"/>
</svg>
