<svg width="15" height="15" viewBox="0 0 15 15" fill="none" xmlns="http://www.w3.org/2000/svg">
<path d="M7.17651 9.06459C5.93401 9.06459 4.91901 8.05542 4.91901 6.80709C4.91901 5.55875 5.93401 4.55542 7.17651 4.55542C8.41901 4.55542 9.43401 5.56459 9.43401 6.81292C9.43401 8.06125 8.41901 9.06459 7.17651 9.06459ZM7.17651 5.43042C6.41817 5.43042 5.79401 6.04875 5.79401 6.81292C5.79401 7.57709 6.41234 8.19542 7.17651 8.19542C7.94067 8.19542 8.55901 7.57709 8.55901 6.81292C8.55901 6.04875 7.93484 5.43042 7.17651 5.43042Z" fill="white"/>
<path d="M7.17651 14.0756C6.31318 14.0756 5.44401 13.7489 4.76734 13.1014C3.04651 11.4447 1.14484 8.80224 1.86234 5.65808C2.50984 2.80558 5.00068 1.52808 7.17651 1.52808C7.17651 1.52808 7.17651 1.52808 7.18234 1.52808C9.35818 1.52808 11.849 2.80558 12.4965 5.66391C13.2082 8.80808 11.3065 11.4447 9.58568 13.1014C8.90901 13.7489 8.03984 14.0756 7.17651 14.0756ZM7.17651 2.40308C5.47901 2.40308 3.29734 3.30724 2.71984 5.85058C2.08984 8.59808 3.81651 10.9664 5.37984 12.4656C6.38901 13.4397 7.96984 13.4397 8.97901 12.4656C10.5365 10.9664 12.2632 8.59808 11.6448 5.85058C11.0615 3.30724 8.87401 2.40308 7.17651 2.40308Z" fill="white"/>
</svg>
