<svg width="16" height="17" viewBox="0 0 16 17" fill="none" xmlns="http://www.w3.org/2000/svg">
<path d="M12 7.41634C11.7267 7.41634 11.5 7.18967 11.5 6.91634V5.58301C11.5 3.48301 10.9067 2.08301 8 2.08301C5.09333 2.08301 4.5 3.48301 4.5 5.58301V6.91634C4.5 7.18967 4.27333 7.41634 4 7.41634C3.72667 7.41634 3.5 7.18967 3.5 6.91634V5.58301C3.5 3.64967 3.96667 1.08301 8 1.08301C12.0333 1.08301 12.5 3.64967 12.5 5.58301V6.91634C12.5 7.18967 12.2733 7.41634 12 7.41634Z" fill="#101010"/>
<path d="M8.00001 13.0833C6.80668 13.0833 5.83334 12.11 5.83334 10.9167C5.83334 9.72333 6.80668 8.75 8.00001 8.75C9.19334 8.75 10.1667 9.72333 10.1667 10.9167C10.1667 12.11 9.19334 13.0833 8.00001 13.0833ZM8.00001 9.75C7.36001 9.75 6.83334 10.2767 6.83334 10.9167C6.83334 11.5567 7.36001 12.0833 8.00001 12.0833C8.64001 12.0833 9.16668 11.5567 9.16668 10.9167C9.16668 10.2767 8.64001 9.75 8.00001 9.75Z" fill="#101010"/>
<path d="M11.3333 15.417H4.66668C1.72668 15.417 0.833344 14.5237 0.833344 11.5837V10.2503C0.833344 7.31033 1.72668 6.41699 4.66668 6.41699H11.3333C14.2733 6.41699 15.1667 7.31033 15.1667 10.2503V11.5837C15.1667 14.5237 14.2733 15.417 11.3333 15.417ZM4.66668 7.41699C2.28001 7.41699 1.83334 7.87033 1.83334 10.2503V11.5837C1.83334 13.9637 2.28001 14.417 4.66668 14.417H11.3333C13.72 14.417 14.1667 13.9637 14.1667 11.5837V10.2503C14.1667 7.87033 13.72 7.41699 11.3333 7.41699H4.66668Z" fill="#101010"/>
</svg>
