<svg width="20" height="20" viewBox="0 0 20 20" fill="none" xmlns="http://www.w3.org/2000/svg">
<path d="M12.7 18.5583H12.5917C8.89167 18.5583 7.10834 17.1 6.8 13.8333C6.76667 13.4917 7.01667 13.1833 7.36667 13.15C7.7 13.1166 8.01667 13.375 8.05 13.7167C8.29167 16.3333 9.525 17.3083 12.6 17.3083H12.7083C16.1 17.3083 17.3 16.1083 17.3 12.7167V7.28332C17.3 3.89165 16.1 2.69165 12.7083 2.69165H12.6C9.50834 2.69165 8.275 3.68332 8.05 6.34998C8.00834 6.69165 7.71667 6.94998 7.36667 6.91665C7.01667 6.89165 6.76667 6.58332 6.79167 6.24165C7.075 2.92498 8.86667 1.44165 12.5917 1.44165H12.7C16.7917 1.44165 18.5417 3.19165 18.5417 7.28332V12.7167C18.5417 16.8083 16.7917 18.5583 12.7 18.5583Z" fill="#E31D1C"/>
<path d="M12.5 10.625H3.01666C2.675 10.625 2.39166 10.3417 2.39166 10C2.39166 9.65833 2.675 9.375 3.01666 9.375H12.5C12.8417 9.375 13.125 9.65833 13.125 10C13.125 10.3417 12.8417 10.625 12.5 10.625Z" fill="#E31D1C"/>
<path d="M4.875 13.4167C4.71667 13.4167 4.55834 13.3584 4.43334 13.2334L1.64167 10.4417C1.4 10.2 1.4 9.80003 1.64167 9.55837L4.43334 6.7667C4.675 6.52503 5.075 6.52503 5.31667 6.7667C5.55834 7.00837 5.55834 7.40837 5.31667 7.65003L2.96667 10L5.31667 12.35C5.55834 12.5917 5.55834 12.9917 5.31667 13.2334C5.2 13.3584 5.03334 13.4167 4.875 13.4167Z" fill="#E31D1C"/>
</svg>
