<svg width="14" height="18" viewBox="0 0 14 18" fill="none" xmlns="http://www.w3.org/2000/svg">
<g clip-path="url(#clip0_791_2969)">
<path d="M12.9839 7.70239C13.1332 7.81744 13.2298 7.96487 13.2599 8.1235C13.29 8.28213 13.252 8.44381 13.1514 8.5853C12.5992 9.76238 11.7446 10.8476 10.6357 11.7801C10.2459 12.0977 8.75452 13.2404 8.74163 13.7962C10.1622 13.0167 11.9434 11.044 12.9484 10.0143C13.0225 9.93734 13.0161 9.75691 13.2158 9.85314C13.2537 9.8682 13.2869 9.88925 13.3128 9.91482C13.3388 9.94039 13.357 9.96988 13.3662 10.0012C13.3754 10.0326 13.3753 10.0651 13.3661 10.0964C13.3568 10.1277 13.3385 10.1572 13.3124 10.1827C13.0708 10.4955 13.1739 10.866 13.1031 11.2052C13.018 11.6593 12.8041 12.0946 12.4758 12.4821C12.1476 12.8696 11.7124 13.2003 11.1994 13.4521C9.84004 14.1402 8.63856 14.9485 7.90736 16.0913C7.7463 16.3318 7.51438 16.7697 7.1375 16.6975C6.62212 16.5989 6.76385 16.161 6.94101 15.8868C7.58524 14.8836 7.47572 13.8587 8.0974 12.8218C8.3334 12.4285 8.62495 12.0551 8.96711 11.708C9.48128 11.168 10.0685 10.669 10.7194 10.2188C11.7308 9.55723 12.2333 8.5829 12.9839 7.70239Z" fill="white"/>
<path d="M11.4496 6.1532C12.0004 5.87413 12.0101 5.40019 12.1905 4.98881C12.2356 4.89258 12.1744 4.7338 12.3902 4.74823C12.5384 4.76267 12.6092 4.87574 12.6189 4.98881C12.7413 6.45873 12.4192 7.90458 11.1758 9.16761C10.625 9.72334 10.3802 10.1852 9.6039 10.6111C8.8276 11.0369 8.31544 11.8645 7.89991 12.5669C7.83008 12.7223 7.71069 12.8627 7.55203 12.9759C7.44251 13.0409 7.31045 13.1323 7.16227 13.0577C7.0141 12.9831 7.13651 12.8845 7.11396 12.8051C6.86271 11.8909 7.75819 11.2366 8.05131 10.4523C8.01876 10.3897 8.01179 10.3213 8.03128 10.2558C8.05078 10.1903 8.09586 10.1306 8.16083 10.0842C9.01703 9.53516 9.68052 8.8381 10.0935 8.05374C10.5187 7.41862 11.0405 6.80516 11.4496 6.1532Z" fill="white"/>
<path d="M5.73634 14.6629C5.26605 13.9581 4.92461 13.193 4.10966 12.6421C3.84722 12.432 3.5482 12.2491 3.22063 12.0984C2.3638 11.7712 1.95794 11.1361 1.49732 10.5563C1.09468 10.0367 0.559966 9.57477 0.379582 8.97092C0.337708 8.82898 0.257179 8.69185 0.228189 8.54991C0.176651 8.28769 0.0703531 7.92682 0.498765 7.85465C0.998041 7.76804 0.843427 8.18664 0.978714 8.39354C1.18165 8.70148 1.53275 9.0046 1.62294 9.28608C1.92251 10.1016 2.86952 10.489 3.43 11.1193C3.52232 11.2497 3.66188 11.3581 3.83275 11.4321C4.00362 11.5061 4.19892 11.5428 4.39634 11.5379C4.92783 11.497 4.81509 11.7135 4.79254 11.9276C5.05901 12.3025 5.36604 12.6606 5.71057 12.9982C6.12922 13.3807 6.38002 13.8502 6.42888 14.343C6.51585 14.8289 6.25494 14.9059 5.73634 14.6629Z" fill="white"/>
<path d="M5.47531 10.7362C5.15319 10.9455 5.17252 10.4331 5.43343 10.6953C6.05515 11.2693 6.41115 11.9783 6.44809 12.7161C6.44809 12.8701 6.39977 13.0529 6.15174 13.0794C5.90372 13.1059 5.92304 12.9014 5.82963 12.7883C5.56228 12.4539 5.27559 12.1267 4.99858 11.7947C4.80531 11.1572 4.16752 10.7121 3.58128 10.2478C2.84686 9.67043 2.00292 9.16282 1.5584 8.41704C1.17831 7.77951 1.29749 7.16364 1.47787 6.49243" fill="white"/>
<path d="M2.69884 13.8874C2.54112 13.77 2.36223 13.6696 2.16735 13.5891C1.65804 13.3122 1.22707 12.9629 0.899251 12.5612C0.571431 12.1594 0.353231 11.7132 0.257212 11.2483C0.228222 11.1208 0.134809 10.9187 0.373173 10.8585C0.611537 10.7984 0.669518 11.0077 0.756488 11.1256C1.45688 12.1295 2.55469 12.9477 3.90032 13.4688C4.70561 13.7695 5.12113 14.3758 5.6945 14.8545C6.14886 15.533 6.35658 16.2888 6.29685 17.0461C5.78078 16.742 5.38362 16.3398 5.1469 15.8818C4.63474 15.0277 3.63941 14.5273 2.75359 13.9355L2.69884 13.8874Z" fill="white"/>
<path d="M11.0532 6.15206C11.0177 6.81364 10.4089 7.27795 10.0546 7.83609C9.98374 7.94916 9.91932 8.07666 9.85167 8.18251C9.05927 8.77433 8.50524 9.50568 7.79981 10.148L7.65485 10.4752C7.45514 10.4752 7.33274 10.7278 7.14269 10.5979C6.95265 10.468 7.06861 10.2827 7.08149 10.1167C7.16202 9.01491 7.95764 8.15846 8.90466 7.40786C9.74215 6.74387 9.91932 5.89705 10.3284 5.11277C10.4572 4.8722 10.4734 4.59072 10.7053 4.36939C10.8277 4.24911 10.8212 3.99169 11.124 4.07108C11.3559 4.13363 11.3012 4.34774 11.3173 4.51374C11.372 5.07669 11.1691 5.60114 11.0532 6.15206Z" fill="white"/>
<path d="M5.54015 10.0878C5.51202 10.0164 5.47758 9.94651 5.43707 9.87852C5.41037 9.83533 5.37324 9.79618 5.32755 9.76304C4.45025 9.10968 3.73098 8.34784 3.2016 7.51125C2.68622 6.72698 2.70232 5.90421 2.79252 5.07422C2.81184 4.90823 2.81828 4.65562 3.15328 4.66765C3.48828 4.67968 3.35944 4.93469 3.37554 5.0646C3.43236 5.76328 3.6503 6.44937 4.01977 7.09265C4.34188 7.62192 4.70909 8.05495 5.41774 8.29553C5.78173 8.42544 5.72375 8.75022 5.92668 8.9523C5.96583 8.99576 5.9952 9.04371 6.01365 9.09424C6.05553 9.2025 6.21659 9.26264 6.25524 9.3709L6.31 9.49841C6.38292 9.63051 6.44635 9.76543 6.50005 9.90257C6.52656 9.97007 6.52591 10.0419 6.49816 10.1091C6.47042 10.1763 6.41681 10.236 6.34401 10.2806C6.27121 10.3252 6.18244 10.3529 6.08876 10.3601C5.99508 10.3673 5.90063 10.3538 5.81717 10.3212C5.75093 10.2998 5.6918 10.2678 5.64393 10.2275C5.59606 10.1872 5.56063 10.1395 5.54015 10.0878Z" fill="white"/>
<path d="M5.35275 7.72447C5.42683 7.09176 4.77938 6.70443 4.36708 6.28102C3.64232 5.5208 3.63266 4.67638 3.72285 3.85842C3.82393 3.09457 4.09615 2.34882 4.52814 1.65235C4.662 1.41755 4.86019 1.20628 5.10996 1.03214C5.35973 0.857998 5.65555 0.724834 5.97837 0.641217C6.3012 0.5576 6.64389 0.525382 6.98439 0.546635C7.32489 0.567889 7.65566 0.642143 7.95543 0.764622C9.41138 1.27945 9.90744 2.28025 10.1426 3.38449C10.01 4.89977 9.23877 6.34486 7.93932 7.51276C7.52379 7.89287 7.20168 8.32831 6.83447 8.73729C6.67713 8.78525 6.50437 8.79759 6.33771 8.77278C6.17104 8.74797 6.01782 8.68711 5.89712 8.59776C5.61624 8.34736 5.4285 8.04619 5.35275 7.72447ZM5.83592 6.20644C5.95821 6.35174 6.12836 6.47119 6.33012 6.55335C6.53187 6.63551 6.75847 6.67763 6.98825 6.6757C7.21803 6.67377 7.4433 6.62785 7.64253 6.54232C7.84175 6.45679 8.00827 6.33452 8.12615 6.18719C8.52041 5.67163 8.73313 5.0898 8.74439 4.49614C8.75566 3.90247 8.56511 3.31637 8.19057 2.79267C8.07682 2.58444 7.8787 2.408 7.62397 2.28807C7.36924 2.16814 7.07065 2.11072 6.77005 2.12387C6.47245 2.14213 6.18946 2.22799 5.95913 2.36992C5.72879 2.51184 5.56215 2.70302 5.48159 2.91777C5.22205 3.38005 5.09056 3.8768 5.09506 4.37807C5.09665 5.02859 5.35429 5.66441 5.83592 6.20644Z" fill="white"/>
<path d="M5.90748 4.12306C5.89621 3.83262 5.99803 3.54596 6.20061 3.29789C6.25366 3.20766 6.33801 3.12965 6.44495 3.07192C6.55189 3.01419 6.67753 2.97884 6.80888 2.96952C6.94024 2.9602 7.07254 2.97725 7.19212 3.01891C7.3117 3.06056 7.41421 3.12532 7.48906 3.20647C7.69416 3.43266 7.83092 3.68947 7.88988 3.95907C7.94884 4.22868 7.92858 4.50463 7.8305 4.76781C7.7081 5.0974 7.4794 5.3909 6.97368 5.40774C6.46796 5.42458 6.19417 5.13108 6.00734 4.79668C5.92022 4.57843 5.88639 4.35026 5.90748 4.12306Z" fill="white"/>
</g>
<defs>
<clipPath id="clip0_791_2969">
<rect width="13.197" height="16.4963" fill="white" transform="translate(0.176514 0.550781)"/>
</clipPath>
</defs>
</svg>
