<svg width="70" height="70" viewBox="0 0 70 70" fill="none" xmlns="http://www.w3.org/2000/svg">
<path d="M34.998 30.6834C33.8022 30.6834 32.8105 29.6918 32.8105 28.4959V18.7834C32.8105 17.5876 33.8022 16.5959 34.998 16.5959C36.1939 16.5959 37.1855 17.5876 37.1855 18.7834V28.4959C37.1855 29.7209 36.1939 30.6834 34.998 30.6834Z" fill="#FF70CA"/>
<path d="M35.0575 59.3542C27.5325 59.3542 20.0367 58.1584 12.8909 55.7667C10.2367 54.8917 8.22421 52.9959 7.34921 50.6042C6.47421 48.2125 6.76587 45.4709 8.19504 43.0792L11.8992 36.8959C12.7159 35.525 13.445 32.9584 13.445 31.3542V25.2292C13.445 13.3 23.1284 3.6167 35.0575 3.6167C46.9867 3.6167 56.67 13.3 56.67 25.2292V31.3542C56.67 32.9292 57.3992 35.525 58.2159 36.8959L61.92 43.0792C63.2909 45.3542 63.5242 48.0667 62.62 50.5459C61.7159 53.025 59.7325 54.9209 57.2242 55.7667C50.0784 58.1875 42.5825 59.3542 35.0575 59.3542ZM35.0575 8.02087C25.5492 8.02087 17.82 15.75 17.82 25.2584V31.3834C17.82 33.7459 16.8867 37.1584 15.6617 39.1709L11.9575 45.3834C11.1992 46.6375 11.0242 47.9792 11.4617 49.1459C11.8992 50.3125 12.8909 51.1875 14.2909 51.6542C27.7075 56.1167 42.4659 56.1167 55.8825 51.6542C57.1367 51.2459 58.0992 50.3125 58.5367 49.0875C59.0034 47.8625 58.8575 46.5209 58.1867 45.3834L54.4825 39.2C53.2575 37.1875 52.3242 33.775 52.3242 31.4125V25.2875C52.295 15.75 44.5659 8.02087 35.0575 8.02087Z" fill="#FF70CA"/>
<path d="M34.9996 66.7914C31.8788 66.7914 28.8163 65.508 26.5996 63.2914C24.3829 61.0747 23.0996 58.0122 23.0996 54.8914H27.4746C27.4746 56.8747 28.2913 58.7997 29.6913 60.1997C31.0913 61.5997 33.0163 62.4164 34.9996 62.4164C39.1413 62.4164 42.5246 59.033 42.5246 54.8914H46.8996C46.8996 61.4539 41.5621 66.7914 34.9996 66.7914Z" fill="#FF70CA"/>
</svg>
