<svg width="25" height="24" viewBox="0 0 25 24" fill="none" xmlns="http://www.w3.org/2000/svg">
<path d="M14.7199 21.6301C13.5399 21.6301 11.8699 20.8001 10.5499 16.8301L9.82988 14.6701L7.66988 13.9501C3.70988 12.6301 2.87988 10.9601 2.87988 9.78007C2.87988 8.61007 3.70988 6.93007 7.66988 5.60007L16.1599 2.77007C18.2799 2.06007 20.0499 2.27007 21.1399 3.35007C22.2299 4.43007 22.4399 6.21007 21.7299 8.33007L18.8999 16.8201C17.5699 20.8001 15.8999 21.6301 14.7199 21.6301ZM8.13988 7.03007C5.35988 7.96007 4.36988 9.06007 4.36988 9.78007C4.36988 10.5001 5.35988 11.6001 8.13988 12.5201L10.6599 13.3601C10.8799 13.4301 11.0599 13.6101 11.1299 13.8301L11.9699 16.3501C12.8899 19.1301 13.9999 20.1201 14.7199 20.1201C15.4399 20.1201 16.5399 19.1301 17.4699 16.3501L20.2999 7.86007C20.8099 6.32007 20.7199 5.06007 20.0699 4.41007C19.4199 3.76007 18.1599 3.68007 16.6299 4.19007L8.13988 7.03007Z" fill="#CD0683"/>
<path d="M10.6103 14.4C10.4203 14.4 10.2303 14.33 10.0803 14.18C9.79029 13.89 9.79029 13.41 10.0803 13.12L13.6603 9.53C13.9503 9.24 14.4303 9.24 14.7203 9.53C15.0103 9.82 15.0103 10.3 14.7203 10.59L11.1403 14.18C11.0003 14.33 10.8003 14.4 10.6103 14.4Z" fill="#CD0683"/>
</svg>
