<svg width="70" height="70" viewBox="0 0 70 70" fill="none" xmlns="http://www.w3.org/2000/svg">
<rect x="5" y="5" width="60" height="60" rx="30" fill="#FFC7EA"/>
<path d="M42.7467 33.4546C42.2399 33.4546 41.8195 33.0343 41.8195 32.5275V30.0549C41.8195 26.1607 40.7193 23.5645 35.3292 23.5645C29.939 23.5645 28.8388 26.1607 28.8388 30.0549V32.5275C28.8388 33.0343 28.4184 33.4546 27.9116 33.4546C27.4047 33.4546 26.9844 33.0343 26.9844 32.5275V30.0549C26.9844 26.4698 27.8498 21.7101 35.3292 21.7101C42.8086 21.7101 43.6739 26.4698 43.6739 30.0549V32.5275C43.6739 33.0343 43.2536 33.4546 42.7467 33.4546Z" fill="#CD0683"/>
<path d="M35.3294 43.9629C33.1165 43.9629 31.3115 42.158 31.3115 39.945C31.3115 37.7321 33.1165 35.9272 35.3294 35.9272C37.5423 35.9272 39.3472 37.7321 39.3472 39.945C39.3472 42.158 37.5423 43.9629 35.3294 43.9629ZM35.3294 37.7816C34.1426 37.7816 33.1659 38.7582 33.1659 39.945C33.1659 41.1319 34.1426 42.1085 35.3294 42.1085C36.5162 42.1085 37.4928 41.1319 37.4928 39.945C37.4928 38.7582 36.5162 37.7816 35.3294 37.7816Z" fill="#CD0683"/>
<path d="M41.5107 48.2898H29.1481C23.6961 48.2898 22.0396 46.6332 22.0396 41.1813V38.7087C22.0396 33.2568 23.6961 31.6002 29.1481 31.6002H41.5107C46.9626 31.6002 48.6192 33.2568 48.6192 38.7087V41.1813C48.6192 46.6332 46.9626 48.2898 41.5107 48.2898ZM29.1481 33.4546C24.7222 33.4546 23.8939 34.2953 23.8939 38.7087V41.1813C23.8939 45.5947 24.7222 46.4354 29.1481 46.4354H41.5107C45.9365 46.4354 46.7648 45.5947 46.7648 41.1813V38.7087C46.7648 34.2953 45.9365 33.4546 41.5107 33.4546H29.1481Z" fill="#CD0683"/>
<rect x="5" y="5" width="60" height="60" rx="30" stroke="#FFDEF3" stroke-width="9"/>
</svg>
