<svg width="58" height="58" viewBox="0 0 58 58" fill="none" xmlns="http://www.w3.org/2000/svg">
<circle cx="29" cy="29" r="29" fill="#CD0683"/>
<path d="M29.1995 28.525C29.162 28.525 29.137 28.525 29.0995 28.525C29.037 28.5125 28.9495 28.5125 28.8745 28.525C25.2495 28.4125 22.512 25.5625 22.512 22.05C22.512 18.475 25.4245 15.5625 28.9995 15.5625C32.5745 15.5625 35.487 18.475 35.487 22.05C35.4745 25.5625 32.7245 28.4125 29.237 28.525C29.2245 28.525 29.212 28.525 29.1995 28.525ZM28.9995 17.4375C26.462 17.4375 24.387 19.5125 24.387 22.05C24.387 24.55 26.337 26.5625 28.8245 26.65C28.887 26.6375 29.062 26.6375 29.2245 26.65C31.6745 26.5375 33.5995 24.525 33.612 22.05C33.612 19.5125 31.537 17.4375 28.9995 17.4375Z" fill="white"/>
<path d="M29.212 42.1875C26.762 42.1875 24.2995 41.5625 22.437 40.3125C20.6995 39.1625 19.7495 37.5875 19.7495 35.875C19.7495 34.1625 20.6995 32.575 22.437 31.4125C26.187 28.925 32.262 28.925 35.987 31.4125C37.712 32.5625 38.6745 34.1375 38.6745 35.85C38.6745 37.5625 37.7245 39.15 35.987 40.3125C34.112 41.5625 31.662 42.1875 29.212 42.1875ZM23.4745 32.9875C22.2745 33.7875 21.6245 34.8125 21.6245 35.8875C21.6245 36.95 22.287 37.975 23.4745 38.7625C26.587 40.85 31.837 40.85 34.9495 38.7625C36.1495 37.9625 36.7995 36.9375 36.7995 35.8625C36.7995 34.8 36.137 33.775 34.9495 32.9875C31.837 30.9125 26.587 30.9125 23.4745 32.9875Z" fill="white"/>
</svg>
