<svg width="12" height="13" viewBox="0 0 12 13" fill="none" xmlns="http://www.w3.org/2000/svg">
<path d="M2.735 5.875C2.38 5.875 2.02 5.745 1.745 5.48C0.825 4.605 0.455 3.65 0.67 2.715C0.925 1.615 1.89 1.125 2.735 1.125C3.58 1.125 4.55 1.62 4.8 2.715C5.015 3.65 4.64 4.605 3.725 5.48C3.45 5.745 3.095 5.875 2.735 5.875ZM1.4 2.885C1.21 3.72 1.765 4.46 2.265 4.935C2.53 5.19 2.945 5.185 3.21 4.935C3.71 4.46 4.265 3.72 4.07 2.88C3.9 2.14 3.245 1.875 2.74 1.875C2.23 1.875 1.575 2.14 1.4 2.885Z" fill="#CD0683"/>
<path d="M2.755 3.6001C2.48 3.6001 2.255 3.3751 2.255 3.1001C2.255 2.8251 2.475 2.6001 2.755 2.6001H2.76C3.035 2.6001 3.26 2.8251 3.26 3.1001C3.26 3.3751 3.035 3.6001 2.755 3.6001Z" fill="#CD0683"/>
<path d="M9.245 11.8751C8.89 11.8751 8.53 11.7451 8.25 11.4801C7.325 10.6051 6.95 9.65012 7.17 8.71012C7.425 7.61512 8.395 7.12012 9.245 7.12012C10.095 7.12012 11.065 7.61512 11.32 8.71012C11.535 9.64512 11.16 10.6051 10.235 11.4751C9.96 11.7451 9.605 11.8751 9.245 11.8751ZM9.245 7.87512C8.735 7.87512 8.075 8.14012 7.9 8.88512C7.705 9.72012 8.265 10.4651 8.765 10.9401C9.03 11.1951 9.45 11.1951 9.72 10.9401C10.22 10.4651 10.78 9.72512 10.585 8.89012C10.42 8.14012 9.76 7.87512 9.245 7.87512Z" fill="#CD0683"/>
<path d="M9.265 9.6001C8.99 9.6001 8.765 9.3751 8.765 9.1001C8.765 8.8251 8.985 8.6001 9.265 8.6001H9.27C9.545 8.6001 9.77 8.8251 9.77 9.1001C9.77 9.3751 9.54 9.6001 9.265 9.6001Z" fill="#CD0683"/>
<path d="M6 10.375H4.66C4.08 10.375 3.575 10.025 3.375 9.485C3.17 8.945 3.32 8.35 3.755 7.965L7.75 4.47C7.99 4.26 7.995 3.975 7.925 3.78C7.85 3.585 7.66 3.375 7.34 3.375H6C5.795 3.375 5.625 3.205 5.625 3C5.625 2.795 5.795 2.625 6 2.625H7.34C7.92 2.625 8.425 2.975 8.625 3.515C8.83 4.055 8.68 4.65 8.245 5.035L4.25 8.53C4.01 8.74 4.005 9.025 4.075 9.22C4.15 9.415 4.34 9.625 4.66 9.625H6C6.205 9.625 6.375 9.795 6.375 10C6.375 10.205 6.205 10.375 6 10.375Z" fill="#CD0683"/>
<path d="M6 10.375H4.66C4.08 10.375 3.575 10.025 3.375 9.485C3.17 8.945 3.32 8.35 3.755 7.965L7.75 4.47C7.99 4.26 7.995 3.975 7.925 3.78C7.85 3.585 7.66 3.375 7.34 3.375H6C5.795 3.375 5.625 3.205 5.625 3C5.625 2.795 5.795 2.625 6 2.625H7.34C7.92 2.625 8.425 2.975 8.625 3.515C8.83 4.055 8.68 4.65 8.245 5.035L4.25 8.53C4.01 8.74 4.005 9.025 4.075 9.22C4.15 9.415 4.34 9.625 4.66 9.625H6C6.205 9.625 6.375 9.795 6.375 10C6.375 10.205 6.205 10.375 6 10.375Z" fill="#CD0683"/>
</svg>
