<svg width="20" height="20" viewBox="0 0 20 20" fill="none" xmlns="http://www.w3.org/2000/svg">
<path d="M9.16666 17.2917C4.68332 17.2917 1.04166 13.6501 1.04166 9.16675C1.04166 4.68341 4.68332 1.04175 9.16666 1.04175C9.50832 1.04175 9.79166 1.32508 9.79166 1.66675C9.79166 2.00841 9.50832 2.29175 9.16666 2.29175C5.37499 2.29175 2.29166 5.37508 2.29166 9.16675C2.29166 12.9584 5.37499 16.0417 9.16666 16.0417C12.9583 16.0417 16.0417 12.9584 16.0417 9.16675C16.0417 8.82508 16.325 8.54175 16.6667 8.54175C17.0083 8.54175 17.2917 8.82508 17.2917 9.16675C17.2917 13.6501 13.65 17.2917 9.16666 17.2917Z" fill="#6D6D6D"/>
<path d="M16.6667 4.79175H11.6667C11.325 4.79175 11.0417 4.50841 11.0417 4.16675C11.0417 3.82508 11.325 3.54175 11.6667 3.54175H16.6667C17.0083 3.54175 17.2917 3.82508 17.2917 4.16675C17.2917 4.50841 17.0083 4.79175 16.6667 4.79175Z" fill="#6D6D6D"/>
<path d="M14.1667 7.29175H11.6667C11.325 7.29175 11.0417 7.00841 11.0417 6.66675C11.0417 6.32508 11.325 6.04175 11.6667 6.04175H14.1667C14.5083 6.04175 14.7917 6.32508 14.7917 6.66675C14.7917 7.00841 14.5083 7.29175 14.1667 7.29175Z" fill="#6D6D6D"/>
<path d="M16.8001 18.9917C16.7334 18.9917 16.6667 18.9833 16.6084 18.975C16.2167 18.925 15.5084 18.6583 15.1084 17.4667C14.9001 16.8417 14.9751 16.2167 15.3167 15.7417C15.6584 15.2667 16.2334 15 16.8917 15C17.7417 15 18.4084 15.325 18.7084 15.9C19.0084 16.475 18.9251 17.2083 18.4501 17.9167C17.8584 18.8083 17.2167 18.9917 16.8001 18.9917ZM16.3001 17.075C16.4417 17.5083 16.6417 17.725 16.7751 17.7417C16.9084 17.7583 17.1584 17.6 17.4167 17.225C17.6584 16.8667 17.6751 16.6083 17.6167 16.4917C17.5584 16.375 17.3251 16.25 16.8917 16.25C16.6334 16.25 16.4417 16.3333 16.3334 16.475C16.2334 16.6167 16.2167 16.8333 16.3001 17.075Z" fill="#6D6D6D"/>
</svg>
