<svg width="16" height="15" viewBox="0 0 16 15" fill="none" xmlns="http://www.w3.org/2000/svg">
<path d="M7.66668 8.59174C6.30226 8.52823 4.92224 8.85489 3.71839 9.57171C2.77521 10.1333 0.302253 11.2801 1.80845 12.715C2.54422 13.416 3.36367 13.9173 4.39392 13.9173H8.00001" stroke="#101010" stroke-linecap="round" stroke-linejoin="round"/>
<path d="M10.3333 3.58398C10.3333 5.24084 8.9902 6.58398 7.33334 6.58398C5.67649 6.58398 4.33334 5.24084 4.33334 3.58398C4.33334 1.92713 5.67649 0.583984 7.33334 0.583984C8.9902 0.583984 10.3333 1.92713 10.3333 3.58398Z" stroke="#101010"/>
<path d="M12 13.0608V13.918M12 13.0608C11.2288 13.0608 10.5494 12.682 10.1509 12.1068M12 13.0608C12.7712 13.0608 13.4506 12.682 13.8491 12.1068M12 8.77511C12.7713 8.77511 13.4507 9.15397 13.8492 9.72922M12 8.77511C11.2288 8.77511 10.5493 9.15397 10.1508 9.72922M12 8.77511V7.91797M14.6667 9.20368L13.8492 9.72922M9.33363 12.6323L10.1509 12.1068M9.33334 9.20368L10.1508 9.72922M14.6664 12.6323L13.8491 12.1068M13.8492 9.72922C14.0849 10.0694 14.2222 10.4782 14.2222 10.918C14.2222 11.3578 14.0848 11.7667 13.8491 12.1068M10.1508 9.72922C9.91517 10.0694 9.77779 10.4782 9.77779 10.918C9.77779 11.3578 9.9152 11.7667 10.1509 12.1068" stroke="#101010" stroke-linecap="round"/>
</svg>
