<svg width="17" height="16" viewBox="0 0 17 16" fill="none" xmlns="http://www.w3.org/2000/svg">
<path d="M8.50006 15.1733C7.77339 15.1733 7.05339 14.96 6.48672 14.54L3.62006 12.4C2.86006 11.8333 2.26672 10.6466 2.26672 9.70663V4.74663C2.26672 3.71996 3.02006 2.62663 3.98672 2.26663L7.31339 1.01996C7.97339 0.773294 9.01339 0.773294 9.67339 1.01996L13.0001 2.26663C13.9667 2.62663 14.7201 3.71996 14.7201 4.74663V9.69996C14.7201 10.6466 14.1267 11.8266 13.3667 12.3933L10.5001 14.5333C9.94672 14.96 9.22672 15.1733 8.50006 15.1733ZM7.66672 1.95996L4.34006 3.20663C3.77339 3.41996 3.27339 4.13996 3.27339 4.75329V9.70663C3.27339 10.34 3.72006 11.2266 4.22006 11.6L7.08672 13.74C7.85339 14.3133 9.14672 14.3133 9.92006 13.74L12.7867 11.6C13.2934 11.22 13.7334 10.34 13.7334 9.70663V4.74663C13.7334 4.13996 13.2334 3.41996 12.6667 3.19996L9.34006 1.95329C8.88672 1.79329 8.11339 1.79329 7.66672 1.95996Z" fill="#101010"/>
<path d="M9.93335 9.4596C9.80668 9.4596 9.68002 9.41293 9.58002 9.31293L6.74668 6.4796C6.55335 6.28626 6.55335 5.96626 6.74668 5.77293C6.94002 5.5796 7.26002 5.5796 7.45335 5.77293L10.2867 8.60626C10.48 8.7996 10.48 9.1196 10.2867 9.31293C10.1867 9.40626 10.06 9.4596 9.93335 9.4596Z" fill="#101010"/>
<path d="M7.06669 9.48694C6.94003 9.48694 6.81336 9.44027 6.71336 9.34027C6.52003 9.14694 6.52003 8.82694 6.71336 8.63361L9.54669 5.80027C9.74003 5.60694 10.06 5.60694 10.2534 5.80027C10.4467 5.99361 10.4467 6.31361 10.2534 6.50694L7.42003 9.34027C7.32669 9.44027 7.19336 9.48694 7.06669 9.48694Z" fill="#101010"/>
</svg>
