<svg width="17" height="16" viewBox="0 0 17 16" fill="none" xmlns="http://www.w3.org/2000/svg">
<path d="M8.50004 15.1663C4.54671 15.1663 1.33337 11.953 1.33337 7.99967C1.33337 4.04634 4.54671 0.833008 8.50004 0.833008C12.4534 0.833008 15.6667 4.04634 15.6667 7.99967C15.6667 11.953 12.4534 15.1663 8.50004 15.1663ZM8.50004 1.83301C5.10004 1.83301 2.33337 4.59967 2.33337 7.99967C2.33337 11.3997 5.10004 14.1663 8.50004 14.1663C11.9 14.1663 14.6667 11.3997 14.6667 7.99967C14.6667 4.59967 11.9 1.83301 8.50004 1.83301Z" fill="#101010"/>
<path d="M3.76664 13.1666C3.63998 13.1666 3.51331 13.12 3.41331 13.02C3.21998 12.8266 3.21998 12.5066 3.41331 12.3133L12.7466 2.97996C12.94 2.78663 13.26 2.78663 13.4533 2.97996C13.6466 3.17329 13.6466 3.49329 13.4533 3.68663L4.11998 13.02C4.01998 13.12 3.89331 13.1666 3.76664 13.1666Z" fill="#101010"/>
</svg>
