<svg width="67" height="20" viewBox="0 0 67 20" fill="none" xmlns="http://www.w3.org/2000/svg">
<g clip-path="url(#clip0_780_4974)">
<path d="M16.39 12.445V8.675H14.89V7.045H15.13C15.2954 7.06376 15.463 7.04524 15.6203 6.99078C15.7776 6.93633 15.9208 6.84734 16.0392 6.73033C16.1577 6.61332 16.2484 6.47127 16.3048 6.31461C16.3612 6.15795 16.3817 5.99065 16.365 5.825V4.53H18.2V7.03H20.13V8.66H18.2V12.43C18.2 13.125 18.485 13.775 19.635 13.775C19.8159 13.7731 19.9963 13.7581 20.175 13.73V15.175C19.8655 15.2225 19.5531 15.2475 19.24 15.25C17.415 15.265 16.39 14.24 16.39 12.445Z" fill="white"/>
<path d="M26.12 6.955V8.585H25.12C24.005 8.585 23.25 9.31 23.25 10.585V15.185H21.46V7.045H23.165V8.18C23.585 7.29 24.37 6.955 25.365 6.955H26.12Z" fill="white"/>
<path d="M29 3.94H27.19V5.975H29V3.94Z" fill="white"/>
<path d="M29 7.045H27.19V15.175H29V7.045Z" fill="white"/>
<path d="M39.195 11.12C39.2118 11.6706 39.1177 12.2189 38.9183 12.7324C38.719 13.2459 38.4184 13.7141 38.0346 14.1092C37.6507 14.5042 37.1914 14.8181 36.6838 15.0321C36.1762 15.2461 35.6308 15.3559 35.08 15.355C34.5752 15.3784 34.0716 15.2875 33.6067 15.0893C33.1418 14.8911 32.7276 14.5905 32.395 14.21V15.175H30.69V3.94H32.5V7.94C32.8286 7.5835 33.231 7.30304 33.6793 7.11822C34.1275 6.93341 34.6106 6.84869 35.095 6.87C35.6453 6.87308 36.1894 6.98624 36.6953 7.2028C37.2011 7.41936 37.6586 7.73495 38.0406 8.13098C38.4227 8.52702 38.7216 8.9955 38.9199 9.50883C39.1181 10.0222 39.2117 10.57 39.195 11.12ZM37.31 11.12C37.3311 10.79 37.2846 10.4592 37.1731 10.1479C37.0617 9.83652 36.8878 9.55127 36.6621 9.30963C36.4364 9.06798 36.1636 8.87506 35.8606 8.7427C35.5576 8.61035 35.2307 8.54137 34.9 8.54C33.495 8.54 32.5 9.625 32.5 11.12C32.5 12.615 33.5 13.685 34.9 13.685C35.2298 13.685 35.556 13.6174 35.8586 13.4864C36.1613 13.3555 36.4339 13.164 36.6597 12.9237C36.8855 12.6833 37.0597 12.3993 37.1715 12.0891C37.2833 11.7789 37.3305 11.4491 37.31 11.12Z" fill="white"/>
<path d="M47.885 11.63H41.915C41.924 11.9207 41.9906 12.2067 42.1108 12.4715C42.2311 12.7364 42.4026 12.9747 42.6156 13.1728C42.8286 13.3709 43.0787 13.5247 43.3515 13.6255C43.6243 13.7263 43.9144 13.772 44.205 13.76C44.612 13.782 45.0168 13.6868 45.3713 13.4856C45.7258 13.2844 46.0152 12.9857 46.205 12.625L47.705 13.35C47.205 14.51 45.88 15.35 44.205 15.35C43.6479 15.3606 43.0945 15.2573 42.5787 15.0464C42.0629 14.8355 41.5957 14.5214 41.2057 14.1235C40.8157 13.7255 40.5111 13.252 40.3107 12.7321C40.1102 12.2122 40.0181 11.6568 40.04 11.1C40.04 8.655 41.775 6.86 44.07 6.86C44.5903 6.8525 45.1067 6.94987 45.5886 7.14629C46.0704 7.34271 46.5078 7.63416 46.8745 8.00326C47.2413 8.37236 47.53 8.81154 47.7233 9.29462C47.9167 9.7777 48.0108 10.2948 48 10.815C47.9943 11.0903 47.9557 11.3639 47.885 11.63ZM46.03 10.23C46.0053 9.7207 45.7822 9.24133 45.4083 8.89459C45.0345 8.54785 44.5397 8.36133 44.03 8.375C43.5101 8.36446 43.005 8.54906 42.6145 8.89243C42.2239 9.23579 41.9761 9.713 41.92 10.23H46.03Z" fill="white"/>
<path d="M53.785 6.955V8.585H52.785C51.665 8.585 50.915 9.31 50.915 10.585V15.185H49.125V7.045H50.83V8.18C51.25 7.29 52.035 6.955 53.03 6.955H53.785Z" fill="white"/>
<path d="M54.915 3.94H56.725V15.175H54.915V3.94Z" fill="white"/>
<path d="M66.03 7.045L62.41 16.125C62.05 17.015 61.41 18.495 59.365 18.495C58.9581 18.5082 58.5528 18.4366 58.175 18.285V16.785C58.4811 16.8606 58.7948 16.9008 59.11 16.905C59.4487 16.9237 59.7834 16.8242 60.057 16.6236C60.3305 16.423 60.526 16.1337 60.61 15.805L60.885 15.17L57.685 7.07H59.685L61.875 12.82L64.06 7.07L66.03 7.045Z" fill="white"/>
<path d="M12.685 8.44C12.8036 8.56468 12.88 8.72352 12.9033 8.89402C12.9267 9.06452 12.8958 9.23804 12.815 9.39C12.377 10.6537 11.6978 11.8203 10.815 12.825C10.505 13.17 9.31501 14.395 9.31501 14.995C10.465 14.155 11.885 12.035 12.69 10.925C12.75 10.845 12.745 10.65 12.91 10.755C12.9401 10.7717 12.9663 10.7946 12.9867 10.8223C13.0072 10.85 13.0215 10.8817 13.0286 10.9154C13.0357 10.949 13.0355 10.9838 13.028 11.0174C13.0205 11.051 13.0058 11.0826 12.985 11.11C12.8602 11.4629 12.8026 11.8359 12.815 12.21C12.7477 12.698 12.5768 13.1659 12.3137 13.5825C12.0507 13.999 11.7017 14.3544 11.29 14.625C10.1631 15.3125 9.24516 16.2944 8.63501 17.465C8.50501 17.735 8.32001 18.195 8.02001 18.12C7.60501 18.01 7.71501 17.54 7.86001 17.245C8.38501 16.17 8.29001 15.065 8.79001 13.95C8.97946 13.526 9.21415 13.1236 9.49001 12.75C9.90187 12.1681 10.3727 11.6302 10.895 11.145C11.675 10.435 12.08 9.385 12.685 8.44Z" fill="white"/>
<path d="M11.46 6.775C11.9 6.47 11.91 5.96 12.055 5.52C12.09 5.415 12.055 5.245 12.215 5.265C12.375 5.285 12.39 5.4 12.4 5.535C12.5671 7.12569 12.1552 8.72331 11.24 10.035C10.9161 10.6202 10.4971 11.1474 9.99999 11.595C9.34999 12.095 8.99999 12.945 8.62999 13.7C8.5742 13.8663 8.47999 14.017 8.35499 14.14C8.26499 14.21 8.15499 14.31 8.03999 14.225C7.92499 14.14 8.01499 14.04 7.99999 13.955C7.79999 12.955 8.49999 12.265 8.75499 11.425C8.72802 11.3582 8.7217 11.2849 8.73685 11.2145C8.75201 11.144 8.78794 11.0798 8.83999 11.03C9.53159 10.4398 10.0688 9.68977 10.405 8.845C10.7 8.135 11.12 7.5 11.46 6.775Z" fill="white"/>
<path d="M6.85999 15.93C6.47999 15.17 6.20499 14.345 5.54999 13.755C5.33978 13.5251 5.09924 13.3249 4.83499 13.16C4.14499 12.81 3.83499 12.13 3.44999 11.5C3.06063 10.9861 2.75827 10.4118 2.55499 9.8C2.50574 9.65221 2.46402 9.50202 2.42999 9.35C2.38999 9.07 2.30499 8.68 2.63499 8.6C3.04999 8.505 2.92499 8.96 3.03499 9.18C3.22679 9.48801 3.39398 9.81068 3.53499 10.145C3.77499 11.02 4.53499 11.44 4.98999 12.115C5.06231 12.2543 5.17244 12.3705 5.30775 12.4501C5.44306 12.5297 5.59807 12.5695 5.75499 12.565C6.17999 12.52 6.08999 12.755 6.07499 12.985C6.28989 13.3868 6.53562 13.7713 6.80999 14.135C7.14734 14.5475 7.34981 15.0537 7.38999 15.585C7.49999 16.105 7.27499 16.19 6.85999 15.93Z" fill="white"/>
<path d="M6.645 11.7C6.38 11.93 6.405 11.375 6.615 11.66C7.11371 12.2784 7.39954 13.0412 7.43 13.835C7.43 14 7.39 14.2 7.19 14.225C6.99 14.25 7.01 14.035 6.935 13.915C6.72 13.55 6.495 13.2 6.27 12.84C6.04846 12.1931 5.65425 11.619 5.13 11.18C4.54 10.555 3.865 10 3.5 9.21C3.25396 8.54886 3.23113 7.82534 3.435 7.15" fill="white"/>
<path d="M4.41499 15.095C4.2916 14.9688 4.15205 14.8595 3.99999 14.77C3.59162 14.4754 3.2457 14.1028 2.98222 13.6737C2.71875 13.2445 2.54295 12.7675 2.46499 12.27C2.46499 12.135 2.36499 11.915 2.55499 11.85C2.74499 11.785 2.79499 12.01 2.86499 12.14C3.43002 13.2128 4.31161 14.0857 5.38999 14.64C6.03999 14.96 6.38999 15.615 6.83499 16.14C7.19318 16.8726 7.35348 17.6862 7.29999 18.5C6.88644 18.1705 6.56733 17.7375 6.37499 17.245C5.96999 16.325 5.16999 15.79 4.46999 15.15L4.41499 15.095Z" fill="white"/>
<path d="M11.13 6.775C11.105 7.485 10.605 7.985 10.33 8.585L10.165 8.955C9.53 9.595 9.085 10.38 8.515 11.07L8.4 11.425C8.24 11.425 8.14 11.695 7.99 11.555C7.84 11.415 7.93 11.215 7.94 11.055C8.05966 9.93955 8.58025 8.90549 9.405 8.145C10.075 7.43 10.22 6.515 10.55 5.675C10.608 5.39284 10.7092 5.12131 10.85 4.87C10.95 4.745 10.945 4.465 11.185 4.555C11.425 4.645 11.33 4.85 11.345 5.03C11.3423 5.61811 11.2701 6.20383 11.13 6.775Z" fill="white"/>
<path d="M6.69999 11C6.6769 10.9231 6.6485 10.8479 6.61499 10.775C6.59556 10.7279 6.56663 10.6854 6.52999 10.65C5.82418 9.94652 5.24562 9.12605 4.81999 8.225C4.4746 7.39942 4.36386 6.4945 4.49999 5.61C4.49999 5.43 4.49999 5.16 4.78999 5.17C5.07999 5.18 4.95499 5.46 4.96999 5.6C5.00945 6.3501 5.17862 7.08768 5.46999 7.78C5.66713 8.34124 6.06893 8.80733 6.59499 9.085C6.88999 9.225 6.83999 9.585 7.00499 9.79C7.0383 9.83656 7.06209 9.88923 7.07499 9.945C7.10499 10.06 7.23999 10.125 7.26999 10.24L7.31499 10.375C7.36999 10.52 7.41999 10.665 7.46499 10.815C7.48433 10.8875 7.48237 10.964 7.45934 11.0353C7.43631 11.1067 7.39319 11.1699 7.33515 11.2174C7.2771 11.2649 7.2066 11.2946 7.13208 11.3031C7.05756 11.3115 6.98219 11.2983 6.91499 11.265C6.8612 11.2403 6.81382 11.2036 6.77653 11.1576C6.73924 11.1117 6.71305 11.0577 6.69999 11Z" fill="white"/>
<path d="M6.55 8.46C6.61 7.78 6.085 7.365 5.76 6.905C5.27069 6.13083 5.09208 5.20031 5.26 4.3C5.34065 3.47783 5.55868 2.67502 5.905 1.925C6.01606 1.67782 6.17691 1.45621 6.3775 1.27402C6.5781 1.09184 6.81413 0.952995 7.07082 0.866178C7.32752 0.779361 7.59937 0.746436 7.86937 0.769462C8.13937 0.792487 8.40171 0.870968 8.64 0.999997C9.81 1.55 10.21 2.625 10.4 3.82C10.2921 5.45032 9.67076 7.00461 8.625 8.26C8.295 8.67 8.035 9.135 7.74 9.58C7.61237 9.624 7.47479 9.63042 7.34361 9.59852C7.21243 9.56661 7.09317 9.4977 7 9.4C6.76957 9.13194 6.6143 8.80759 6.55 8.46ZM6.935 6.83C7.03254 6.98601 7.16816 7.11466 7.32909 7.20385C7.49003 7.29303 7.67101 7.33982 7.855 7.33982C8.039 7.33982 8.21997 7.29303 8.38091 7.20385C8.54185 7.11466 8.67746 6.98601 8.775 6.83C9.0934 6.27544 9.2655 5.649 9.27512 5.00961C9.28474 4.37022 9.13157 3.73889 8.83 3.175C8.73932 2.95071 8.58051 2.76057 8.37597 2.63138C8.17143 2.5022 7.93149 2.4405 7.69 2.455C7.44927 2.47348 7.22 2.56537 7.03313 2.71826C6.84626 2.87116 6.71079 3.07769 6.645 3.31C6.43879 3.80766 6.33342 4.34131 6.335 4.88C6.34163 5.57443 6.5501 6.25195 6.935 6.83Z" fill="white"/>
<path d="M7.00001 4.59C6.98947 4.27672 7.07118 3.96724 7.23501 3.7C7.27648 3.6005 7.34421 3.51414 7.43096 3.45014C7.51771 3.38614 7.62021 3.34691 7.72752 3.33664C7.83483 3.32638 7.94291 3.34545 8.04022 3.39184C8.13753 3.43822 8.22041 3.51017 8.28001 3.6C8.44661 3.84256 8.55764 4.11888 8.60518 4.40928C8.65271 4.69968 8.63558 4.99699 8.55501 5.28C8.45501 5.635 8.27001 5.95 7.86501 5.97C7.46001 5.99 7.24001 5.67 7.09501 5.31C7.01888 5.07799 6.98666 4.83382 7.00001 4.59Z" fill="white"/>
</g>
<defs>
<clipPath id="clip0_780_4974">
<rect width="66.655" height="19.2" fill="white"/>
</clipPath>
</defs>
</svg>
