<svg width="12" height="13" viewBox="0 0 12 13" fill="none" xmlns="http://www.w3.org/2000/svg">
<path d="M6 11.875C3.035 11.875 0.625 9.465 0.625 6.5C0.625 3.535 3.035 1.125 6 1.125C8.965 1.125 11.375 3.535 11.375 6.5C11.375 9.465 8.965 11.875 6 11.875ZM6 1.875C3.45 1.875 1.375 3.95 1.375 6.5C1.375 9.05 3.45 11.125 6 11.125C8.55 11.125 10.625 9.05 10.625 6.5C10.625 3.95 8.55 1.875 6 1.875Z" fill="#CD0683"/>
<path d="M5.29022 8.28999C5.19022 8.28999 5.09522 8.24999 5.02522 8.17999L3.61021 6.76499C3.46521 6.61999 3.46521 6.37999 3.61021 6.23499C3.75521 6.08999 3.99521 6.08999 4.14021 6.23499L5.29022 7.38499L7.86022 4.81499C8.00522 4.66999 8.24522 4.66999 8.39022 4.81499C8.53522 4.95999 8.53522 5.19999 8.39022 5.34499L5.55522 8.17999C5.48522 8.24999 5.39022 8.28999 5.29022 8.28999Z" fill="#CD0683"/>
</svg>
