<svg width="48" height="49" viewBox="0 0 48 49" fill="none" xmlns="http://www.w3.org/2000/svg">
<rect y="0.75" width="48" height="48" rx="24" fill="#CD0683" fill-opacity="0.2"/>
<path fill-rule="evenodd" clip-rule="evenodd" d="M23.375 20.6218C23.457 20.5401 23.5544 20.4753 23.6616 20.4311C23.7689 20.3869 23.8839 20.3641 24 20.3641C24.1161 20.3641 24.2311 20.3869 24.3384 20.4311C24.4456 20.4753 24.543 20.5401 24.625 20.6218L28.1563 24.1295C28.2384 24.2111 28.3035 24.3079 28.3479 24.4144C28.3923 24.5209 28.4152 24.6351 28.4152 24.7504C28.4152 24.8657 28.3923 24.9799 28.3479 25.0864C28.3035 25.1929 28.2384 25.2897 28.1563 25.3713C28.0742 25.4528 27.9768 25.5175 27.8695 25.5616C27.7623 25.6057 27.6473 25.6285 27.5313 25.6285C27.4152 25.6285 27.3002 25.6057 27.193 25.5616C27.0857 25.5175 26.9883 25.4528 26.9062 25.3713L24.8828 23.3596V30.012C24.8828 30.2446 24.7898 30.4677 24.6242 30.6321C24.4587 30.7966 24.2341 30.889 24 30.889C23.7659 30.889 23.5413 30.7966 23.3758 30.6321C23.2102 30.4677 23.1172 30.2446 23.1172 30.012V23.3596L21.0938 25.3713C20.928 25.5359 20.7032 25.6285 20.4688 25.6285C20.2343 25.6285 20.0095 25.5359 19.8437 25.3713C19.678 25.2066 19.5848 24.9833 19.5848 24.7504C19.5848 24.5175 19.678 24.2942 19.8437 24.1295L23.375 20.6218Z" fill="#101010"/>
<path d="M17.6543 17.4573C19.4191 15.9457 21.6698 15.1109 24 15.1036C28.7495 15.1036 32.6922 18.6114 33.1212 23.1347C35.9321 23.5293 38.125 25.8672 38.125 28.7365C38.125 31.8865 35.4801 34.3963 32.2755 34.3963H16.5508C12.8907 34.3963 9.875 31.5305 9.875 27.9385C9.875 24.8464 12.1103 22.2858 15.0695 21.6368C15.322 20.1232 16.3019 18.6149 17.6543 17.4573ZM18.8073 18.785C17.4707 19.9303 16.7715 21.3106 16.7715 22.391V23.1767L15.9858 23.2627C13.5192 23.531 11.6406 25.5427 11.6406 27.9385C11.6406 30.5115 13.8123 32.6424 16.5508 32.6424H32.2755C34.5584 32.6424 36.3594 30.8675 36.3594 28.7365C36.3594 26.6038 34.5584 24.8289 32.2755 24.8289H31.3927V23.952C31.3944 20.0583 28.1104 16.8575 24 16.8575C22.0929 16.8651 20.2513 17.5476 18.8073 18.785Z" fill="#101010"/>
</svg>
