<svg width="16" height="15" viewBox="0 0 16 15" fill="none" xmlns="http://www.w3.org/2000/svg">
<path d="M5.33325 6.42833L8.08207 3.67952C8.83198 2.9296 9.20694 2.55465 9.62073 2.25265C10.4697 1.63302 11.4545 1.22513 12.4929 1.06294C12.9991 0.983887 13.5294 0.983887 14.5899 0.983887C14.6453 0.983887 14.6666 1.0093 14.6666 1.06058C14.6666 2.12111 14.6666 2.65138 14.5875 3.15753C14.4253 4.19601 14.0175 5.18073 13.3978 6.02974C13.0958 6.44354 12.7209 6.81849 11.971 7.56841L9.22214 10.3172" stroke="#CD0683" stroke-linecap="round" stroke-linejoin="round"/>
<path d="M6.8939 5.04948C5.75864 5.04948 4.33177 4.80898 3.26945 5.24901C2.49106 5.57143 1.91828 6.318 1.33325 6.90302L3.53723 7.84759C4.12131 8.0979 3.76426 8.83498 3.66756 9.31845C3.55982 9.85717 3.56583 9.87702 3.95431 10.2655L5.38497 11.6962C5.77345 12.0846 5.7933 12.0907 6.33203 11.9829C6.81549 11.8862 7.55257 11.5292 7.80288 12.1132L8.74745 14.3172C9.33248 13.7322 10.079 13.1594 10.4015 12.381C10.8415 11.3187 10.601 9.89184 10.601 8.75657" stroke="#CD0683" stroke-linejoin="round"/>
<path d="M12.5959 3.76185C12.7912 3.56658 12.7912 3.25 12.5959 3.05474C12.4006 2.85948 12.0841 2.85948 11.8888 3.05474L12.5959 3.76185ZM10.6464 4.29716C10.4511 4.49242 10.4511 4.80901 10.6464 5.00427C10.8416 5.19953 11.1582 5.19953 11.3535 5.00427L10.6464 4.29716ZM11.8888 3.05474L10.6464 4.29716L11.3535 5.00427L12.5959 3.76185L11.8888 3.05474ZM9.31843 2.81716C10.5079 2.85244 11.3538 3.21199 11.9114 3.78353C12.471 4.35701 12.8 5.20498 12.8335 6.33221L13.833 6.30256C13.7944 4.99884 13.4075 3.8849 12.6272 3.08516C11.8449 2.28348 10.7268 1.8585 9.34808 1.8176L9.31843 2.81716Z" fill="#CD0683"/>
<path d="M7.99992 12.9839L7.33325 13.6506" stroke="#CD0683" stroke-width="1.5" stroke-linecap="round" stroke-linejoin="round"/>
<path d="M2.66667 7.65088L2 8.31755" stroke="#CD0683" stroke-width="1.5" stroke-linecap="round" stroke-linejoin="round"/>
</svg>
