<svg width="10" height="14" viewBox="0 0 10 14" fill="none" xmlns="http://www.w3.org/2000/svg">
<path d="M5.66675 1.65088C5.66675 2.20316 5.21903 2.65088 4.66675 2.65088C4.11446 2.65088 3.66675 2.20316 3.66675 1.65088C3.66675 1.09859 4.11446 0.650879 4.66675 0.650879C5.21903 0.650879 5.66675 1.09859 5.66675 1.65088Z" stroke="white"/>
<path d="M4.29845 12.6515L5.05238 10.3787C5.32132 9.56801 5.45579 9.16264 5.25475 8.88236C5.05371 8.60208 4.62848 8.60208 3.77802 8.60208H2.95526M9 4.21517L7.8426 4.87975C7.25746 5.21574 6.96489 5.38373 6.64157 5.39877C6.31824 5.41381 6.01148 5.27369 5.39795 4.99346L4.8758 4.75497M2.95526 8.60208H2.2835C1.65113 8.60208 1.33495 8.60208 1.13337 8.35326C0.931785 8.10444 0.989474 7.82461 1.10485 7.26495C1.29805 6.3278 1.68608 5.16285 2.39478 4.37067C2.59038 4.15202 2.68819 4.04269 2.90336 3.99752C3.11854 3.95234 3.29065 4.03096 3.63488 4.18818L4.8758 4.75497M2.95526 8.60208C3.1162 7.72471 3.72562 5.72697 4.8758 4.75497" stroke="white" stroke-linecap="round" stroke-linejoin="round"/>
</svg>
