<svg width="16" height="17" viewBox="0 0 16 17" fill="none" xmlns="http://www.w3.org/2000/svg">
<path d="M2.66675 5.98437C2.66675 4.09876 2.66675 3.15595 3.33622 2.57016C4.00569 1.98438 5.08318 1.98438 7.23818 1.98438H8.76199C10.917 1.98438 11.9945 1.98438 12.6639 2.57016C13.3334 3.15595 13.3334 4.09876 13.3334 5.98438V11.9844H2.66675V5.98437Z" stroke="#CD0683" stroke-linejoin="round"/>
<path d="M2 11.9844L14 11.9844" stroke="#CD0683" stroke-linecap="round"/>
<path d="M7.1325 4.36179C7.95258 4.24425 9.31157 4.29127 8.18689 5.41964C6.78103 6.83011 4.67225 10.0038 7.1325 8.94597C9.59274 7.88812 10.6473 8.59335 9.5929 9.6512" stroke="#CD0683" stroke-linecap="round" stroke-linejoin="round"/>
<path d="M8 11.9842V14.6509" stroke="#CD0683" stroke-linecap="round"/>
<path d="M3.33325 15.3177L5.33325 11.9844" stroke="#CD0683" stroke-linecap="round"/>
<path d="M12.6667 15.3177L10.6667 11.9844" stroke="#CD0683" stroke-linecap="round"/>
</svg>
