<svg width="16" height="17" viewBox="0 0 16 17" fill="none" xmlns="http://www.w3.org/2000/svg">
<path d="M6 10.6509L4 15.3175" stroke="#CD0683" stroke-linecap="round"/>
<path d="M10 10.6509L12 15.3175" stroke="#CD0683" stroke-linecap="round"/>
<path d="M8 10.6509L8 15.3175" stroke="#CD0683" stroke-linecap="round"/>
<path d="M10.3703 4.65153C10.7654 4.28334 10.7654 3.68639 10.3703 3.3182C9.97523 2.95001 9.97523 2.35305 10.3703 1.98486M7.99992 4.65153C8.39498 4.28334 8.39498 3.68639 7.99992 3.3182C7.60486 2.95001 7.60486 2.35305 7.99992 1.98486M5.62955 4.65153C6.02461 4.28334 6.02461 3.68639 5.62955 3.3182C5.23449 2.95001 5.23449 2.35305 5.62955 1.98486" stroke="#CD0683" stroke-linecap="round"/>
<path d="M5 13.3188H11" stroke="#CD0683" stroke-linecap="round"/>
<path d="M7.99992 10.6515C10.358 10.6515 12.3087 8.91204 12.6322 6.64955C12.6737 6.35963 12.6944 6.21467 12.5945 6.09976C12.4945 5.98486 12.3333 5.98486 12.0109 5.98486H3.98898C3.66653 5.98486 3.50531 5.98486 3.40536 6.09976C3.30541 6.21467 3.32614 6.35963 3.36759 6.64955C3.69111 8.91204 5.64182 10.6515 7.99992 10.6515Z" stroke="#CD0683" stroke-linecap="round" stroke-linejoin="round"/>
<path d="M12.6665 7.31885H13.3332M3.33317 7.31885H2.6665" stroke="#CD0683" stroke-linecap="round"/>
</svg>
