<svg width="16" height="17" viewBox="0 0 16 17" fill="none" xmlns="http://www.w3.org/2000/svg">
<path d="M1.33325 15.3174L14.6666 15.3174" stroke="#CD0683" stroke-linecap="round" stroke-linejoin="round"/>
<path d="M10 15.3174V11.4992C10 10.2942 9.10457 9.31738 8 9.31738C6.89543 9.31738 6 10.2942 6 11.4992V15.3174" stroke="#CD0683" stroke-linecap="round" stroke-linejoin="round"/>
<path d="M11.3333 7.31738L13.3333 7.31738" stroke="#CD0683" stroke-linecap="round" stroke-linejoin="round"/>
<path d="M2.6665 7.31738L4.6665 7.31738" stroke="#CD0683" stroke-linecap="round" stroke-linejoin="round"/>
<path d="M7.6665 7.31738L8.33317 7.31738" stroke="#CD0683" stroke-linecap="round" stroke-linejoin="round"/>
<path d="M2.6665 15.3175L2.6665 4.65088H13.3332L13.3332 15.3175" stroke="#CD0683" stroke-linecap="round" stroke-linejoin="round"/>
<path d="M3.33325 4.65055V3.98389C3.33325 3.04108 3.33325 2.56967 3.62615 2.27678C3.91904 1.98389 4.39044 1.98389 5.33325 1.98389H10.6666C11.6094 1.98389 12.0808 1.98389 12.3737 2.27678C12.6666 2.56967 12.6666 3.04108 12.6666 3.98389L12.6666 4.65055" stroke="#CD0683" stroke-linecap="round" stroke-linejoin="round"/>
<path d="M2 4.65088L14 4.65088" stroke="#CD0683" stroke-linecap="round" stroke-linejoin="round"/>
</svg>
