<svg width="16" height="17" viewBox="0 0 16 17" fill="none" xmlns="http://www.w3.org/2000/svg">
<path d="M8.00008 1.98389V4.65055M9.33341 3.31722L6.66675 3.31722" stroke="#CD0683" stroke-linecap="round" stroke-linejoin="round"/>
<path d="M5.66756 6.51689L8.00008 4.65088L10.3326 6.51689C11.1448 7.16666 11.3334 7.55908 11.3334 8.59921V15.3175H4.66675V8.59921C4.66675 7.55908 4.85536 7.16666 5.66756 6.51689Z" stroke="#CD0683" stroke-linecap="round" stroke-linejoin="round"/>
<path d="M11.3333 8.65088L12.5258 9.24716C13.243 9.60577 13.6017 9.78508 13.8008 10.1073C13.9999 10.4295 13.9999 10.8304 13.9999 11.6323V13.9842C13.9999 14.6128 13.9999 14.927 13.8047 15.1223C13.6094 15.3175 13.2951 15.3175 12.6666 15.3175H11.3333" stroke="#CD0683" stroke-linecap="round" stroke-linejoin="round"/>
<path d="M4.66667 8.65088L3.4741 9.24716C2.75688 9.60577 2.39826 9.78508 2.19913 10.1073C2 10.4295 2 10.8304 2 11.6323V13.9842C2 14.6128 2 14.927 2.19526 15.1223C2.39052 15.3175 2.70479 15.3175 3.33333 15.3175H4.66667" stroke="#CD0683" stroke-linecap="round" stroke-linejoin="round"/>
<path d="M6.66675 15.3174V12.6507C6.66675 11.9143 7.2637 11.3174 8.00008 11.3174C8.73646 11.3174 9.33341 11.9143 9.33341 12.6507V15.3174" stroke="#CD0683" stroke-linecap="round" stroke-linejoin="round"/>
<path d="M8.00526 7.98389L7.99927 7.98389" stroke="#CD0683" stroke-width="2" stroke-linecap="round" stroke-linejoin="round"/>
</svg>
