<svg width="16" height="17" viewBox="0 0 16 17" fill="none" xmlns="http://www.w3.org/2000/svg">
<path d="M2.3335 7.65088H11.9413C12.9119 7.65088 13.3971 7.65088 13.6987 7.94377C14.0002 8.23667 14.0002 8.70807 14.0002 9.65088V10.6509C14.0002 12.8508 14.0002 13.9507 13.2966 14.6341C12.5931 15.3175 11.4608 15.3175 9.19624 15.3175H7.13742C4.87283 15.3175 3.74053 15.3175 3.03701 14.6341C2.3335 13.9507 2.3335 12.8508 2.3335 10.6509V7.65088Z" stroke="#CD0683"/>
<path d="M2.33218 7.65153C2.09412 6.74624 1.97509 6.2936 2.00436 5.89561C2.05679 5.18274 2.42494 4.533 3.00461 4.13031C3.32824 3.90548 3.77247 3.78419 4.66092 3.54162L9.82139 2.13268C10.0512 2.06995 10.166 2.03858 10.2652 2.02077C11.3669 1.82282 12.4491 2.45948 12.8318 3.53069C12.8662 3.62706 12.897 3.74412 12.9586 3.97823C12.9761 4.04512 12.9849 4.07857 12.9899 4.10743C13.0454 4.42818 12.8669 4.74324 12.5665 4.85464C12.5395 4.86466 12.5067 4.87362 12.4411 4.89155L2.33218 7.65153Z" stroke="#CD0683"/>
<path d="M4.6665 7.31885L5.99984 3.31885" stroke="#CD0683"/>
<path d="M9.33325 5.98486L10.6666 1.98486" stroke="#CD0683"/>
<path d="M5.3335 12.6509H7.3335" stroke="#CD0683" stroke-linecap="round"/>
</svg>
