<svg width="16" height="17" viewBox="0 0 16 17" fill="none" xmlns="http://www.w3.org/2000/svg">
<path d="M1.66699 8.65088L3.00033 9.31755" stroke="#CD0683" stroke-linecap="round" stroke-linejoin="round"/>
<path d="M14.3335 8.98486L13.0002 9.3182" stroke="#CD0683" stroke-linecap="round" stroke-linejoin="round"/>
<path d="M5.3335 12.3175L5.49728 11.9081C5.74084 11.2992 5.86262 10.9947 6.11657 10.8228C6.37052 10.6509 6.69842 10.6509 7.35423 10.6509H8.6461C9.3019 10.6509 9.62981 10.6509 9.88376 10.8228C10.1377 10.9947 10.2595 11.2992 10.5031 11.9081L10.6668 12.3175" stroke="#CD0683" stroke-linecap="round" stroke-linejoin="round"/>
<path d="M1.3335 11.9849V13.9062C1.3335 14.1587 1.494 14.3895 1.74809 14.5025C1.91295 14.5757 2.07042 14.6515 2.26055 14.6515H3.40645C3.59657 14.6515 3.75404 14.5757 3.91891 14.5025C4.17299 14.3895 4.3335 14.1587 4.3335 13.9062V12.6515" stroke="#CD0683" stroke-linecap="round" stroke-linejoin="round"/>
<path d="M11.667 12.6515V13.9062C11.667 14.1587 11.8275 14.3895 12.0816 14.5025C12.2464 14.5757 12.4039 14.6515 12.594 14.6515H13.7399C13.9301 14.6515 14.0875 14.5757 14.2524 14.5025C14.5065 14.3895 14.667 14.1587 14.667 13.9062V11.9849" stroke="#CD0683" stroke-linecap="round" stroke-linejoin="round"/>
<path d="M13.3335 6.3182L14.0002 5.98486" stroke="#CD0683" stroke-linecap="round" stroke-linejoin="round"/>
<path d="M2.66699 6.3182L2.00033 5.98486" stroke="#CD0683" stroke-linecap="round" stroke-linejoin="round"/>
<path d="M3 6.65088L3.72554 4.47427C4.01888 3.59425 4.16555 3.15423 4.51473 2.90256C4.86392 2.65088 5.32773 2.65088 6.25536 2.65088H9.74464C10.6723 2.65088 11.1361 2.65088 11.4853 2.90256C11.8345 3.15423 11.9811 3.59425 12.2745 4.47427L13 6.65088" stroke="#CD0683" stroke-linejoin="round"/>
<path d="M3.00016 6.65088H13.0002C13.6383 7.32656 14.6668 8.26751 14.6668 9.31729V11.631C14.6668 12.0113 14.4138 12.3314 14.0781 12.3759L12.0002 12.6509H4.00016L1.92227 12.3759C1.58653 12.3314 1.3335 12.0113 1.3335 11.631V9.31729C1.3335 8.26751 2.36202 7.32656 3.00016 6.65088Z" stroke="#CD0683" stroke-linejoin="round"/>
</svg>
