<svg width="16" height="17" viewBox="0 0 16 17" fill="none" xmlns="http://www.w3.org/2000/svg">
<path d="M9.99992 15.8177H5.99992C2.37992 15.8177 0.833252 14.271 0.833252 10.651V6.65104C0.833252 3.03104 2.37992 1.48438 5.99992 1.48438H9.99992C13.6199 1.48438 15.1666 3.03104 15.1666 6.65104V10.651C15.1666 14.271 13.6199 15.8177 9.99992 15.8177ZM5.99992 2.48438C2.92659 2.48438 1.83325 3.57771 1.83325 6.65104V10.651C1.83325 13.7244 2.92659 14.8177 5.99992 14.8177H9.99992C13.0733 14.8177 14.1666 13.7244 14.1666 10.651V6.65104C14.1666 3.57771 13.0733 2.48438 9.99992 2.48438H5.99992Z" fill="white"/>
<path d="M14.3199 12.5576H1.67993C1.4066 12.5576 1.17993 12.331 1.17993 12.0576C1.17993 11.7843 1.4066 11.5576 1.67993 11.5576H14.3199C14.5933 11.5576 14.8199 11.7843 14.8199 12.0576C14.8199 12.331 14.5999 12.5576 14.3199 12.5576Z" fill="white"/>
<path d="M14.3199 5.89111H1.67993C1.4066 5.89111 1.17993 5.66445 1.17993 5.39111C1.17993 5.11778 1.39993 4.89111 1.67993 4.89111H14.3199C14.5933 4.89111 14.8199 5.11778 14.8199 5.39111C14.8199 5.66445 14.5999 5.89111 14.3199 5.89111Z" fill="white"/>
<path d="M4.64673 15.4576C4.3734 15.4576 4.14673 15.2309 4.14673 14.9576V12.0576C4.14673 11.7843 4.3734 11.5576 4.64673 11.5576C4.92006 11.5576 5.14673 11.7843 5.14673 12.0576V14.9576C5.14673 15.2376 4.92006 15.4576 4.64673 15.4576Z" fill="white"/>
<path d="M8 15.7976C7.72667 15.7976 7.5 15.571 7.5 15.2976V12.0576C7.5 11.7843 7.72667 11.5576 8 11.5576C8.27333 11.5576 8.5 11.7843 8.5 12.0576V15.2976C8.5 15.571 8.27333 15.7976 8 15.7976Z" fill="white"/>
<path d="M11.3132 15.4976C11.0399 15.4976 10.8132 15.271 10.8132 14.9976V12.0576C10.8132 11.7843 11.0399 11.5576 11.3132 11.5576C11.5866 11.5576 11.8132 11.7843 11.8132 12.0576V14.9976C11.8132 15.2776 11.5866 15.4976 11.3132 15.4976Z" fill="white"/>
<path d="M4.64673 5.45762C4.3734 5.45762 4.14673 5.23095 4.14673 4.95762V2.05762C4.14673 1.78428 4.3734 1.55762 4.64673 1.55762C4.92006 1.55762 5.14673 1.78428 5.14673 2.05762V4.95762C5.14673 5.23762 4.92006 5.45762 4.64673 5.45762Z" fill="white"/>
<path d="M8 5.79762C7.72667 5.79762 7.5 5.57095 7.5 5.29762V2.05762C7.5 1.78428 7.72667 1.55762 8 1.55762C8.27333 1.55762 8.5 1.78428 8.5 2.05762V5.29762C8.5 5.57095 8.27333 5.79762 8 5.79762Z" fill="white"/>
<path d="M8 13.1707C7.72667 13.1707 7.5 12.9441 7.5 12.6707V5.3374C7.5 5.06407 7.72667 4.8374 8 4.8374C8.27333 4.8374 8.5 5.06407 8.5 5.3374V12.6707C8.5 12.9441 8.27333 13.1707 8 13.1707Z" fill="white"/>
<path d="M11.3132 5.49762C11.0399 5.49762 10.8132 5.27095 10.8132 4.99762V2.05762C10.8132 1.78428 11.0399 1.55762 11.3132 1.55762C11.5866 1.55762 11.8132 1.78428 11.8132 2.05762V4.99762C11.8132 5.27762 11.5866 5.49762 11.3132 5.49762Z" fill="white"/>
</svg>
