<svg width="16" height="17" viewBox="0 0 16 17" fill="none" xmlns="http://www.w3.org/2000/svg">
<path d="M3.3335 6.98551C3.3335 7.90599 4.67664 8.65218 6.3335 8.65218C7.99035 8.65218 9.3335 7.90599 9.3335 6.98551C9.3335 6.06504 7.99035 5.31885 6.3335 5.31885C4.67664 5.31885 3.3335 6.06504 3.3335 6.98551Z" stroke="#CD0683"/>
<path d="M9.3335 11.7496C9.3335 12.6159 7.99035 13.3182 6.3335 13.3182C4.67664 13.3182 3.3335 12.6159 3.3335 11.7496V6.98486M9.3335 6.98486V9.65153" stroke="#CD0683" stroke-linecap="round" stroke-linejoin="round"/>
<path d="M6.3335 6.98486L6.32751 6.98486" stroke="#CD0683" stroke-width="1.2" stroke-linecap="round" stroke-linejoin="round"/>
<path d="M1.3335 12.6515L14.6668 7.98486" stroke="#CD0683" stroke-linecap="round" stroke-linejoin="round"/>
<path d="M1.3335 9.98486L3.3335 9.08486M14.6668 3.98486L9.3335 6.38486" stroke="#CD0683" stroke-linecap="round" stroke-linejoin="round"/>
</svg>
