<svg width="16" height="17" viewBox="0 0 16 17" fill="none" xmlns="http://www.w3.org/2000/svg">
<path d="M14.6668 8.65153C14.6668 12.3334 11.6821 15.3182 8.00016 15.3182C4.31826 15.3182 1.3335 12.3334 1.3335 8.65153C1.3335 4.96963 4.31826 1.98486 8.00016 1.98486C11.6821 1.98486 14.6668 4.96963 14.6668 8.65153Z" stroke="#CD0683"/>
<path d="M7.80549 6.8848C7.92167 6.79686 8.07898 6.79686 8.19516 6.8848L9.697 8.02154C9.81318 8.10947 9.86179 8.26534 9.81741 8.40762L9.24376 10.2469C9.19939 10.3892 9.07211 10.4855 8.92851 10.4855H7.07214C6.92854 10.4855 6.80126 10.3892 6.75689 10.2469L6.18324 8.40762C6.13886 8.26534 6.18748 8.10947 6.30365 8.02154L7.80549 6.8848Z" stroke="#CD0683"/>
<path d="M8.00016 6.65153V3.98486M10.0002 7.98486L12.6668 6.98486M9.3335 10.6515L10.6668 12.6515M6.66683 10.3182L5.3335 11.9849M6.00016 8.3182L3.3335 7.65153" stroke="#CD0683" stroke-linecap="round" stroke-linejoin="round"/>
<path d="M6.00016 2.31885L8.01119 3.73379L10.0002 2.31885M1.3335 9.18537L3.46453 7.61141L2.37048 5.13248M12.9803 13.2209L10.4107 12.7558L9.5105 15.3188M13.3533 4.78276L12.5358 6.91203L14.6668 8.48599M5.34011 14.9228L5.36777 12.0965L2.66903 12.1255" stroke="#CD0683" stroke-linejoin="round"/>
</svg>
