<svg width="16" height="17" viewBox="0 0 16 17" fill="none" xmlns="http://www.w3.org/2000/svg">
<path d="M1.339 11.1903C1.48759 8.86158 1.92508 7.15748 2.2958 6.16762C2.48295 5.66788 2.88561 5.29574 3.40113 5.17102C6.26781 4.4775 9.73254 4.4775 12.5992 5.17102C13.1147 5.29574 13.5174 5.66788 13.7046 6.16762C14.0753 7.15748 14.5128 8.86158 14.6614 11.1903C14.7502 12.5835 13.7433 13.3511 12.6288 13.9126C11.9189 14.2702 11.3729 13.2147 11.0105 12.3977C10.8125 11.9514 10.378 11.6746 9.88555 11.6746H6.1148C5.62237 11.6746 5.18788 11.9514 4.98987 12.3977C4.62742 13.2147 4.0815 14.2702 3.37157 13.9126C2.26826 13.3568 1.24939 12.5947 1.339 11.1903Z" stroke="#CD0683" stroke-linecap="round" stroke-linejoin="round"/>
<path d="M3.3335 3.65023L4.64206 3.31689M12.6668 3.65023L11.3335 3.31689" stroke="#CD0683" stroke-linecap="round" stroke-linejoin="round"/>
<path d="M6.00024 9.31689L5.00024 8.31689M5.00024 8.31689L4.00024 7.31689M5.00024 8.31689L4.00024 9.31689M5.00024 8.31689L6.00024 7.31689" stroke="#CD0683" stroke-linecap="round"/>
<path d="M10.6588 7.31689H10.6648" stroke="#CD0683" stroke-width="1.5" stroke-linecap="round" stroke-linejoin="round"/>
<path d="M11.9923 9.31689H11.9983" stroke="#CD0683" stroke-width="1.5" stroke-linecap="round" stroke-linejoin="round"/>
</svg>
