<svg width="16" height="13" viewBox="0 0 16 13" fill="none" xmlns="http://www.w3.org/2000/svg">
<path d="M13.8387 5.42974C14.3335 5.42974 14.6668 6.10874 14.6668 6.66821C14.6668 8.20998 12.3774 8.47321 12.0002 7.00267C11.6647 8.31053 9.66899 8.31053 9.3335 7.00267C8.99801 8.31053 7.00232 8.31053 6.66683 7.00267C6.33134 8.31053 4.33565 8.31053 4.00016 7.00267C3.62294 8.47321 1.3335 8.20998 1.3335 6.66821C1.3335 6.10874 1.66683 5.42974 2.16166 5.42974C2.78817 3.07143 5.16443 1.31689 8.00016 1.31689C10.8359 1.31689 13.2122 3.07143 13.8387 5.42974Z" stroke="#CD0683" stroke-linecap="round" stroke-linejoin="round"/>
<path d="M10.0002 3.65088L10.3335 4.31755" stroke="#CD0683" stroke-linecap="round" stroke-linejoin="round"/>
<path d="M6.00033 3.65088L5.66699 4.31755" stroke="#CD0683" stroke-linecap="round" stroke-linejoin="round"/>
<path d="M8.00024 3.31689V3.98356" stroke="#CD0683" stroke-linecap="round" stroke-linejoin="round"/>
<path d="M2.3335 7.98291L2.63264 8.70086C3.29551 10.2917 3.62694 11.0872 4.29874 11.535C4.97054 11.9829 5.83227 11.9829 7.55572 11.9829H8.44461C10.1681 11.9829 11.0298 11.9829 11.7016 11.535C12.3734 11.0872 12.7048 10.2917 13.3677 8.70086L13.6668 7.98291" stroke="#CD0683" stroke-linecap="round" stroke-linejoin="round"/>
</svg>
