<svg width="16" height="17" viewBox="0 0 16 17" fill="none" xmlns="http://www.w3.org/2000/svg">
<path d="M0.978794 8.92154C0.784033 9.1173 0.784844 9.43388 0.980606 9.62864C1.17637 9.8234 1.49295 9.82259 1.68771 9.62683L0.978794 8.92154ZM7.61984 2.0411L7.75419 1.55949V1.55949L7.61984 2.0411ZM9.21099 2.48495L9.34534 2.00334V2.00334L9.21099 2.48495ZM9.89776 2.94091L9.50934 3.25577V3.25577L9.89776 2.94091ZM13.732 8.86549L13.2769 9.07262V9.07262L13.732 8.86549ZM5.7619 3.0167L5.39417 2.67791V2.67791L5.7619 3.0167ZM7.25376 5.14378L7.17232 4.65046H7.17232L7.25376 5.14378ZM9.15648 6.02279L9.55308 5.71831L9.55308 5.7183L9.15648 6.02279ZM9.80835 8.40745L9.31138 8.46248V8.46248L9.80835 8.40745ZM10.309 9.69736L10.0283 10.1111C10.2384 10.2537 10.522 10.2161 10.6878 10.0237C10.8535 9.83138 10.8488 9.54533 10.6767 9.35858L10.309 9.69736ZM5.0835 10.1369C4.91237 10.3537 4.94932 10.6681 5.16604 10.8392C5.38276 11.0103 5.69717 10.9734 5.86831 10.7567L5.0835 10.1369ZM5.07136 4.22912L4.57879 4.31501L5.07136 4.22912ZM14.5187 12.3874L14.9831 12.5727V12.5727L14.5187 12.3874ZM11.6908 14.1487L11.8472 14.6236L11.6908 14.1487ZM8.30726 5.06762L8.49762 4.60527L8.49762 4.60527L8.30726 5.06762ZM6.8029 14.251L7.16188 14.5991L7.16188 14.5991L6.8029 14.251ZM1.70099 13.8552C1.51389 13.6522 1.19757 13.6392 0.994478 13.8263C0.791381 14.0134 0.778413 14.3297 0.965513 14.5328L1.70099 13.8552ZM6.91963 14.0879L7.1017 13.6222C6.87348 13.533 6.61422 13.6223 6.48939 13.8331L6.91963 14.0879ZM6.89675 14.1265L6.4665 13.8718L6.4665 13.8718L6.89675 14.1265ZM7.18689 9.20381L7.3397 9.67989L7.18689 9.20381ZM7.48549 2.52271L9.07664 2.96657L9.34534 2.00334L7.75419 1.55949L7.48549 2.52271ZM9.50934 3.25577C11.2334 5.38263 12.3381 7.00985 13.2769 9.07262L14.1871 8.65837C13.2004 6.49046 12.0401 4.78967 10.2862 2.62606L9.50934 3.25577ZM9.31138 8.46248C9.36862 8.97943 9.53585 9.59608 9.94127 10.0361L10.6767 9.35858C10.4812 9.14635 10.3526 8.77952 10.3053 8.35242L9.31138 8.46248ZM8.75988 6.32727C8.89078 6.49777 8.98171 6.6163 9.04546 6.70487C9.11639 6.8034 9.12358 6.82484 9.11784 6.8104L10.0472 6.44115C10.0019 6.32708 9.92484 6.21481 9.85705 6.12064C9.7821 6.01652 9.6798 5.88337 9.55308 5.71831L8.75988 6.32727ZM10.3053 8.35242C10.2434 7.79322 10.1964 7.36901 10.16 7.07247C10.1418 6.92456 10.1256 6.80315 10.1109 6.71024C10.0996 6.63921 10.0814 6.52732 10.0472 6.44115L9.11784 6.8104C9.1034 6.77404 9.1078 6.7696 9.1232 6.86677C9.13513 6.94206 9.14964 7.04959 9.16745 7.19447C9.20298 7.48353 9.24914 7.90034 9.31138 8.46248L10.3053 8.35242ZM5.39417 2.67791C5.15402 2.93858 4.92703 3.18217 4.77938 3.41489C4.61367 3.67608 4.51813 3.96709 4.57879 4.31501L5.56393 4.14323C5.55673 4.10193 5.55365 4.06114 5.62377 3.95062C5.71195 3.81163 5.86417 3.64362 6.12963 3.35548L5.39417 2.67791ZM13.2769 9.07262C13.6731 9.94311 13.9437 10.5413 14.0775 11.0394C14.2038 11.5096 14.1956 11.848 14.0543 12.2021L14.9831 12.5727C15.2231 11.9712 15.2109 11.4041 15.0432 10.7799C14.883 10.1836 14.5696 9.49873 14.1871 8.65837L13.2769 9.07262ZM11.8472 14.6236C12.6447 14.361 13.31 14.1441 13.8167 13.8618C14.3559 13.5615 14.7433 13.1738 14.9831 12.5727L14.0543 12.2021C13.9128 12.5568 13.7018 12.7812 13.3301 12.9882C12.926 13.2134 12.368 13.3993 11.5344 13.6737L11.8472 14.6236ZM7.33521 5.6371C7.6376 5.58718 7.83758 5.55448 7.98404 5.54092C8.14258 5.52624 8.15263 5.54468 8.11689 5.52996L8.49762 4.60527C8.29239 4.52078 8.07036 4.52865 7.89185 4.54517C7.70127 4.56282 7.45924 4.60309 7.17232 4.65046L7.33521 5.6371ZM6.44393 13.903C5.85747 14.5079 4.97184 14.8265 4.05976 14.818C3.14777 14.8096 2.2717 14.4747 1.70099 13.8552L0.965513 14.5328C1.75795 15.393 2.91785 15.8075 4.05047 15.818C5.18299 15.8285 6.35062 15.4358 7.16188 14.5991L6.44393 13.903ZM11.5344 13.6737C9.97999 14.1855 8.66241 14.2324 7.1017 13.6222L6.73757 14.5535C8.54868 15.2616 10.1089 15.1959 11.8472 14.6236L11.5344 13.6737ZM7.327 14.3813L7.34988 14.3426L6.48939 13.8331L6.4665 13.8718L7.327 14.3813ZM7.16188 14.5991C7.22973 14.5291 7.2838 14.4542 7.327 14.3812L6.4665 13.8718C6.45657 13.8886 6.44859 13.8982 6.44392 13.903L7.16188 14.5991ZM10.5897 9.28359C9.88573 8.80601 8.48182 8.26304 7.03409 8.72773L7.3397 9.67989C8.39735 9.34041 9.48018 9.73929 10.0283 10.1111L10.5897 9.28359ZM7.03409 8.72773C6.34472 8.949 5.67166 9.39212 5.0835 10.1369L5.86831 10.7567C6.34051 10.1587 6.85032 9.83697 7.3397 9.67989L7.03409 8.72773ZM7.52996 8.84008C6.66386 8.02319 5.42954 7.64493 4.23749 7.65771C3.04552 7.67049 1.82082 8.07519 0.978794 8.92154L1.68771 9.62683C2.30345 9.00793 3.25372 8.66831 4.24821 8.65765C5.24261 8.647 6.20623 8.96618 6.84383 9.56755L7.52996 8.84008ZM8.11689 5.52996C8.16872 5.5513 8.25416 5.61935 8.38107 5.78735C8.44017 5.86558 8.49731 5.95008 8.56068 6.0441C8.62063 6.13304 8.68949 6.23558 8.75988 6.32727L9.55308 5.7183C9.50514 5.65585 9.45431 5.58072 9.38989 5.48516C9.3289 5.39467 9.25698 5.28783 9.17899 5.18459C9.03174 4.98966 8.8109 4.73426 8.49762 4.60527L8.11689 5.52996ZM9.07664 2.96657C9.18277 2.99617 9.24236 3.01322 9.28607 3.02851C9.30563 3.03535 9.31637 3.03995 9.32197 3.04258C9.32465 3.04384 9.32611 3.04463 9.3267 3.04496C9.32701 3.04513 9.32717 3.04523 9.32723 3.04527C9.32727 3.04529 9.32728 3.0453 9.32729 3.0453C9.3273 3.04531 9.3273 3.04531 9.3273 3.04531C9.32731 3.04531 9.32732 3.04532 9.32734 3.04534C9.32737 3.04535 9.32741 3.04539 9.32748 3.04543C9.3276 3.04552 9.32786 3.04571 9.32827 3.04603C9.32906 3.04665 9.3307 3.04798 9.33333 3.05034C9.33884 3.05528 9.34823 3.06435 9.36329 3.0808C9.39652 3.11712 9.43795 3.1677 9.50934 3.25577L10.2862 2.62606C10.1681 2.48043 10.0457 2.32206 9.88084 2.21249C9.71346 2.10124 9.52094 2.05233 9.34534 2.00334L9.07664 2.96657ZM7.75419 1.55949C7.14836 1.39049 6.66686 1.52393 6.27105 1.80398C5.92977 2.04545 5.62654 2.42568 5.39417 2.67791L6.12963 3.35548C6.44491 3.01326 6.62213 2.78058 6.84864 2.62031C7.02063 2.49862 7.19428 2.44148 7.48549 2.52271L7.75419 1.55949ZM4.57879 4.31501C4.70148 5.01855 5.33135 5.36108 5.82384 5.51426C6.34244 5.67555 6.9307 5.70389 7.33521 5.6371L7.17232 4.65046C6.9254 4.69123 6.49454 4.67561 6.12084 4.55938C5.72103 4.43503 5.58542 4.26645 5.56393 4.14323L4.57879 4.31501Z" fill="#CD0683"/>
</svg>
