<svg width="12" height="13" viewBox="0 0 12 13" fill="none" xmlns="http://www.w3.org/2000/svg">
<g clip-path="url(#clip0_2007_3517)">
<path d="M9.37862 8.65122C9.0343 8.65041 8.69322 8.71782 8.37509 8.84955C8.05696 8.98128 7.76808 9.17473 7.52512 9.41872C6.81914 10.1287 5.97932 10.6917 5.05429 11.0749C4.12925 11.4581 3.13739 11.654 2.13612 11.6512H1.56112C1.45017 11.6514 1.34167 11.6186 1.24936 11.5571C1.15705 11.4955 1.08508 11.408 1.04257 11.3055C1.00005 11.203 0.988912 11.0902 1.01055 10.9814C1.03219 10.8726 1.08564 10.7726 1.16412 10.6942L1.51062 10.3477C2.47203 10.2982 3.38078 9.89332 4.06062 9.21172L6.22362 7.05122C6.43468 7.10795 6.65129 7.14148 6.86962 7.15122C6.91262 7.15122 6.95612 7.15122 7.00012 7.15122C7.7962 7.15059 8.55959 6.83452 9.12312 6.27222L9.62312 5.77222C9.9167 5.4781 10.1461 5.12629 10.2968 4.73901C10.4475 4.35174 10.5162 3.93741 10.4986 3.52222C10.4819 3.1052 10.3776 2.69637 10.1925 2.32232C10.0074 1.94828 9.74557 1.6174 9.42412 1.35122C8.82356 0.875555 8.06769 0.639992 7.30322 0.690254C6.53876 0.740516 5.82023 1.07302 5.28712 1.62322L4.97062 1.94022C4.5881 2.32137 4.30946 2.79404 4.16121 3.31328C4.01295 3.83253 4.00001 4.38107 4.12362 4.90672L1.93962 7.09072C1.25766 7.77031 0.852755 8.67921 0.803621 9.64072L0.457121 9.98722C0.238826 10.2055 0.0901737 10.4836 0.0299675 10.7864C-0.0302388 11.0891 0.00070668 11.403 0.118889 11.6881C0.237071 11.9733 0.437181 12.217 0.693902 12.3885C0.950624 12.5599 1.25242 12.6513 1.56112 12.6512H2.13612C3.2687 12.6543 4.39065 12.4327 5.43703 11.9993C6.4834 11.5659 7.43343 10.9292 8.23212 10.1262C8.45886 9.89951 8.74773 9.74511 9.0622 9.68254C9.37667 9.61997 9.70264 9.65204 9.99889 9.77469C10.2951 9.89735 10.5484 10.1051 10.7266 10.3716C10.9048 10.6382 11 10.9516 11.0001 11.2722V12.1512C11.0001 12.2838 11.0528 12.411 11.1466 12.5048C11.2403 12.5985 11.3675 12.6512 11.5001 12.6512C11.6327 12.6512 11.7599 12.5985 11.8537 12.5048C11.9474 12.411 12.0001 12.2838 12.0001 12.1512V11.2722C11.9992 10.5773 11.7227 9.91109 11.2312 9.41974C10.7398 8.92839 10.0736 8.65201 9.37862 8.65122ZM5.67862 2.64522L5.99512 2.32822C6.4058 1.91555 6.96293 1.68191 7.54512 1.67822C7.99583 1.67383 8.43353 1.82918 8.78062 2.11672C8.99536 2.29404 9.17039 2.51456 9.29434 2.76394C9.4183 3.01331 9.48841 3.28598 9.50012 3.56422C9.51167 3.84098 9.46578 4.11713 9.36536 4.37529C9.26494 4.63345 9.11215 4.86801 8.91662 5.06422L8.41662 5.56422C8.22017 5.76067 7.98495 5.91404 7.72595 6.01456C7.46695 6.11507 7.18984 6.16052 6.9123 6.148C6.63476 6.13549 6.36287 6.06529 6.11397 5.94188C5.86506 5.81847 5.64459 5.64456 5.46662 5.43122C5.15064 5.02312 4.99729 4.5123 5.03627 3.99764C5.07525 3.48298 5.30378 3.00108 5.67762 2.64522H5.67862ZM2.64662 7.79772L4.56462 5.87922C4.61012 5.94422 4.64662 6.01422 4.69812 6.07572C4.86409 6.27177 5.05408 6.44615 5.26362 6.59472L3.35362 8.50472C2.94254 8.9171 2.41664 9.1959 1.84462 9.30472C1.95437 8.73318 2.23387 8.208 2.64662 7.79772Z" fill="#CD0683"/>
</g>
<defs>
<clipPath id="clip0_2007_3517">
<rect width="12" height="12" fill="white" transform="translate(0 0.650879)"/>
</clipPath>
</defs>
</svg>
