<svg width="16" height="14" viewBox="0 0 16 14" fill="none" xmlns="http://www.w3.org/2000/svg">
<path d="M6.66659 4.98421L3.51679 1.63463C3.23795 1.33386 3.28261 1.11416 3.61144 0.923956C4.22961 0.56639 4.71118 0.556679 5.36277 0.914264L8.63258 2.70869C8.86536 2.83643 9.09364 2.96592 9.33325 3.03656" stroke="#CD0683" stroke-linecap="round" stroke-linejoin="round"/>
<path d="M8.33325 7.75901L9.74011 12.2966C9.855 12.6672 10.0573 12.7344 10.3706 12.5547C10.9597 12.217 11.1971 11.8269 11.213 11.124L11.2929 7.59676C11.3036 7.12562 11.3016 6.66455 11.6666 6.31689" stroke="#CD0683" stroke-linecap="round" stroke-linejoin="round"/>
<path d="M5.55222 5.9737L6.81016 5.05457L9.7564 2.90653L9.7594 2.90434L9.76755 2.89838C9.84981 2.83823 10.8769 2.09067 11.4612 1.83473C12.1843 1.51797 12.8579 1.66523 13.5825 1.86763C13.9574 1.97231 14.1448 2.02465 14.28 2.12231C14.4946 2.27724 14.6341 2.51571 14.6628 2.77654C14.6809 2.94093 14.6331 3.12726 14.5376 3.49991C14.3529 4.2204 14.1453 4.86965 13.5058 5.32921C12.9889 5.70058 11.819 6.2046 11.7254 6.24468L11.7162 6.24863L11.7128 6.2501L8.35439 7.69383L6.91874 8.30924L6.91873 8.30925C6.39819 8.53239 6.13792 8.64396 5.96085 8.85099C5.54614 9.33588 5.48757 10.2134 5.33279 10.8171C5.24726 11.1507 4.77824 11.7289 4.36031 11.6421C4.10229 11.5885 4.09734 11.2655 4.06522 11.0596L3.75605 9.07679C3.68212 8.6026 3.67644 8.59291 3.29724 8.29263L1.71163 7.03703C1.54694 6.90661 1.26594 6.74088 1.34792 6.4936C1.48071 6.09306 2.22264 5.98133 2.55823 6.07506C3.16548 6.24465 3.9649 6.63336 4.59781 6.52141C4.86805 6.47361 5.09611 6.30697 5.55222 5.97371L5.55222 5.9737Z" stroke="#CD0683" stroke-linecap="round" stroke-linejoin="round"/>
</svg>
