<svg width="16" height="17" viewBox="0 0 16 17" fill="none" xmlns="http://www.w3.org/2000/svg">
<path d="M4.66683 6.98486C4.66683 7.90534 3.92064 8.65153 3.00016 8.65153C2.07969 8.65153 1.3335 7.90534 1.3335 6.98486C1.3335 6.06439 2.07969 5.3182 3.00016 5.3182C3.92064 5.3182 4.66683 6.06439 4.66683 6.98486ZM4.66683 6.98486V1.98486C4.88905 2.3182 5.06683 3.7182 6.66683 3.98486" stroke="#CD0683" stroke-linecap="round" stroke-linejoin="round"/>
<ellipse cx="7.00016" cy="13.6515" rx="1.66667" ry="1.66667" stroke="#CD0683"/>
<ellipse cx="13.3333" cy="12.6522" rx="1.33333" ry="1.33333" stroke="#CD0683"/>
<path d="M8.66699 13.6509L8.66699 8.65088C8.66699 7.76214 8.66699 7.31777 8.89161 7.04197C9.11622 6.76617 9.62871 6.66023 10.6537 6.44834C12.1657 6.13576 13.3155 5.52488 14.0331 5.0745C14.3181 4.89561 14.4606 4.80617 14.5638 4.86324C14.667 4.92032 14.667 5.08478 14.667 5.41371V12.6015" stroke="#CD0683" stroke-linecap="round" stroke-linejoin="round"/>
<path d="M8.66699 9.31885C11.867 9.31885 14.0003 7.76329 14.667 7.31885" stroke="#CD0683" stroke-linecap="round" stroke-linejoin="round"/>
</svg>
