<svg width="16" height="17" viewBox="0 0 16 17" fill="none" xmlns="http://www.w3.org/2000/svg">
<path d="M10.6667 3.65088C10.6667 4.20316 10.219 4.65088 9.66675 4.65088C9.11446 4.65088 8.66675 4.20316 8.66675 3.65088C8.66675 3.09859 9.11446 2.65088 9.66675 2.65088C10.219 2.65088 10.6667 3.09859 10.6667 3.65088Z" stroke="#CD0683"/>
<path d="M3.3335 8.65023L4.31764 7.09975C4.49144 6.82592 4.57835 6.68901 4.69184 6.57774C4.80532 6.46648 4.94135 6.38484 5.2134 6.22157L5.82789 5.85276C6.40289 5.50766 6.69039 5.33511 7.00829 5.31825C7.32619 5.30138 7.62878 5.44263 8.23396 5.72513L9.36395 6.25262C9.61277 6.36877 9.73719 6.42685 9.84606 6.50812C9.92322 6.56572 9.99431 6.63179 10.0582 6.7052C10.1482 6.80879 10.2183 6.93141 10.3584 7.17665C10.6049 7.60818 10.7281 7.82394 10.902 7.97596C11.0246 8.08322 11.1647 8.16648 11.3153 8.22177C11.5289 8.30012 11.7684 8.30012 12.2476 8.30012H12.6668" stroke="#CD0683" stroke-linecap="round" stroke-linejoin="round"/>
<path d="M7.66683 5.65088L5.3335 9.98421M5.3335 9.98421L5.94698 10.8431C6.54469 11.6799 6.41043 12.8336 5.63653 13.5107L4.3335 14.6509M5.3335 9.98421H7.66683M11.3335 12.6509L9.9335 10.7842C9.55579 10.2806 8.96301 9.98421 8.3335 9.98421H7.66683M7.66683 9.98421L10.0002 6.65088" stroke="#CD0683" stroke-linecap="round" stroke-linejoin="round"/>
</svg>
