<svg width="16" height="17" viewBox="0 0 16 17" fill="none" xmlns="http://www.w3.org/2000/svg">
<path d="M11.3126 6.67937C11.2133 6.66102 11.1109 6.65143 11.0063 6.65143C10.4597 6.65143 9.9744 6.9132 9.66954 7.31792M11.3126 6.67937C12.5156 6.90167 13.0657 8.35877 12.343 9.3182H4.32259C3.52374 8.25768 4.29864 6.65143 5.65933 6.65143M11.3126 6.67937C11.7081 4.14155 8.91036 4.80386 8.45138 3.26668C8.32841 2.85484 8.42873 2.36551 9.00117 1.98486C7.3161 1.98486 6.15123 3.0226 6.38093 4.10139M6.38093 4.10139C6.4701 4.52022 6.76949 4.94524 7.33025 5.31812M6.38093 4.10139C4.87881 4.69494 5.06628 6.96168 6.66188 7.28474" stroke="#CD0683" stroke-linecap="round" stroke-linejoin="round"/>
<path d="M5.20279 13.2307L4.3335 9.31885H12.3335L11.4642 13.2307C11.2417 14.2317 11.1305 14.7323 10.7649 15.0256C10.3993 15.3188 9.88655 15.3188 8.86104 15.3188H7.80595C6.78045 15.3188 6.26769 15.3188 5.90209 15.0256C5.53648 14.7323 5.42525 14.2317 5.20279 13.2307Z" stroke="#CD0683" stroke-linecap="round" stroke-linejoin="round"/>
</svg>
