<svg width="16" height="17" viewBox="0 0 16 17" fill="none" xmlns="http://www.w3.org/2000/svg">
<path d="M7.14578 5.22475L10.0002 11.3169C8.55572 11.3169 8.11611 10.555 6.60886 9.79309C5.40306 9.18356 3.71997 9.28515 3.21755 9.41213L5.02422 8.13484C5.33268 7.91677 5.48691 7.80773 5.5362 7.64174C5.58549 7.47575 5.51576 7.30021 5.3763 6.94914L5.19029 6.48085L5.19029 6.48084C5.15155 6.38333 5.13219 6.33458 5.10956 6.29075C4.98236 6.04445 4.75864 5.86199 4.49178 5.78694C4.4443 5.77358 4.39264 5.76442 4.28934 5.74609L2.12226 5.3616C1.66596 5.28064 1.3335 4.884 1.3335 4.42057C1.3335 3.83837 1.84962 3.39144 2.42584 3.47466L5.35636 3.89791L5.35637 3.89791C5.53624 3.92388 5.62617 3.93687 5.70967 3.95635C6.24816 4.08193 6.71063 4.42485 6.98723 4.90365C7.03011 4.97789 7.06867 5.06017 7.14578 5.22475Z" stroke="#CD0683" stroke-linecap="round" stroke-linejoin="round"/>
<ellipse cx="12.6667" cy="7.31689" rx="2" ry="2" stroke="#CD0683" stroke-linecap="round" stroke-linejoin="round"/>
<path d="M1.3335 12.7064C2.0372 10.352 5.17916 11.4326 7.66683 12.7064C10.1545 13.9802 12.6668 14.7907 14.0002 12.7064" stroke="#CD0683" stroke-linecap="round" stroke-linejoin="round"/>
</svg>
