<svg width="16" height="17" viewBox="0 0 16 17" fill="none" xmlns="http://www.w3.org/2000/svg">
<path d="M9.3335 1.98486H6.66683C4.48068 1.98486 3.3876 1.98486 2.61277 2.52741C2.3261 2.72813 2.07677 2.97747 1.87604 3.26413C1.3335 4.03897 1.3335 5.13204 1.3335 7.3182C1.3335 9.50435 1.3335 10.5974 1.87604 11.3723C2.07677 11.6589 2.3261 11.9083 2.61277 12.109C3.3876 12.6515 4.48068 12.6515 6.66683 12.6515H9.3335C11.5196 12.6515 12.6127 12.6515 13.3876 12.109C13.6742 11.9083 13.9236 11.6589 14.1243 11.3723C14.6668 10.5974 14.6668 9.50435 14.6668 7.3182C14.6668 5.13204 14.6668 4.03897 14.1243 3.26413C13.9236 2.97747 13.6742 2.72813 13.3876 2.52741C12.6127 1.98486 11.5196 1.98486 9.3335 1.98486Z" stroke="white" stroke-linecap="round"/>
<path d="M10.6669 5.98486L11.4846 6.68966C11.8284 6.98595 12.0002 7.1341 12.0002 7.3182C12.0002 7.50229 11.8284 7.65044 11.4846 7.94674L10.6669 8.65153" stroke="white" stroke-linecap="round" stroke-linejoin="round"/>
<path d="M5.33358 5.98486L4.51588 6.68966C4.17212 6.98595 4.00024 7.1341 4.00024 7.3182C4.00024 7.50229 4.17212 7.65044 4.51588 7.94674L5.33358 8.65153" stroke="white" stroke-linecap="round" stroke-linejoin="round"/>
<path d="M8.66683 5.31885L7.3335 9.31885" stroke="white" stroke-linecap="round" stroke-linejoin="round"/>
<path d="M9.77082 15.3175L9.49158 15.0383C8.86208 14.4088 8.70602 13.4471 9.10415 12.6509" stroke="white" stroke-linecap="round"/>
<path d="M6.00067 15.3175L6.27991 15.0383C6.9094 14.4088 7.06546 13.4471 6.66733 12.6509" stroke="white" stroke-linecap="round"/>
<path d="M4.66699 15.3188H11.3337" stroke="white" stroke-linecap="round"/>
</svg>
