<svg width="16" height="17" viewBox="0 0 16 17" fill="none" xmlns="http://www.w3.org/2000/svg">
<path d="M4.66683 6.65088H11.3335C12.5797 6.65088 13.2027 6.65088 13.6668 6.91883C13.9709 7.09436 14.2233 7.34684 14.3989 7.65088C14.6668 8.11498 14.6668 8.73806 14.6668 9.98421C14.6668 11.2304 14.6668 11.8534 14.3989 12.3175C14.2233 12.6216 13.9709 12.8741 13.6668 13.0496C13.2027 13.3175 12.5797 13.3175 11.3335 13.3175H11.071C10.6131 13.3175 10.3841 13.3175 10.1699 13.27C9.8831 13.2063 9.61387 13.0802 9.38134 12.9006C9.20763 12.7665 9.06105 12.5906 8.76788 12.2388C8.5343 11.9585 8.41751 11.8184 8.28345 11.7554C8.10399 11.6712 7.89634 11.6712 7.71687 11.7554C7.58282 11.8184 7.46603 11.9585 7.23245 12.2388C6.93928 12.5906 6.79269 12.7665 6.61899 12.9006C6.38645 13.0802 6.11722 13.2063 5.83044 13.27C5.6162 13.3175 5.38723 13.3175 4.92929 13.3175H4.66683C3.42068 13.3175 2.7976 13.3175 2.3335 13.0496C2.02946 12.8741 1.77698 12.6216 1.60145 12.3175C1.3335 11.8534 1.3335 11.2304 1.3335 9.98421C1.3335 8.73806 1.3335 8.11498 1.60145 7.65088C1.77698 7.34684 2.02946 7.09436 2.3335 6.91883C2.7976 6.65088 3.42068 6.65088 4.66683 6.65088Z" stroke="#CD0683" stroke-linecap="round" stroke-linejoin="round"/>
<path d="M3.3335 8.65088H4.66683" stroke="#CD0683" stroke-linecap="round" stroke-linejoin="round"/>
<path d="M14.6668 9.3182V8.53715C14.6668 7.76802 14.6668 7.38346 14.5647 7.0251C14.5086 6.82824 14.43 6.63849 14.3304 6.45961C14.1493 6.13398 13.8773 5.86205 13.3335 5.3182C12.7896 4.77434 12.5177 4.50242 12.1921 4.32125C12.0132 4.22172 11.8235 4.14313 11.6266 4.08701C11.2682 3.98486 10.8837 3.98486 10.1145 3.98486H5.88578C5.11666 3.98486 4.73209 3.98486 4.37373 4.08701C4.17687 4.14313 3.98712 4.22172 3.80824 4.32125C3.48261 4.50242 3.21068 4.77434 2.66683 5.3182C2.12298 5.86205 1.85105 6.13398 1.66988 6.45961C1.57036 6.63849 1.49176 6.82824 1.43565 7.0251C1.3335 7.38346 1.3335 7.76802 1.3335 8.53715V9.3182" stroke="#CD0683" stroke-linecap="round" stroke-linejoin="round"/>
</svg>
