<svg width="16" height="17" viewBox="0 0 16 17" fill="none" xmlns="http://www.w3.org/2000/svg">
<path d="M11.3333 3.65088C11.3333 4.20316 10.8855 4.65088 10.3333 4.65088C9.78097 4.65088 9.33325 4.20316 9.33325 3.65088C9.33325 3.09859 9.78097 2.65088 10.3333 2.65088C10.8855 2.65088 11.3333 3.09859 11.3333 3.65088Z" stroke="#CD0683"/>
<path d="M10 14.6514L9.55726 12.9074C9.41073 12.3303 9.10767 11.8032 8.68048 11.3825L7.66667 10.3841M4 8.08649C4.66667 6.77332 5.69178 6.01241 8 5.98512M8 5.98512C8.14575 5.98339 8.36292 5.98288 8.5799 5.98291C8.91646 5.98297 9.08474 5.983 9.21882 6.04564C9.3529 6.10828 9.49041 6.27258 9.76544 6.6012C9.84425 6.69536 9.92517 6.77972 10 6.83583M8 5.98512L7.15394 7.29059C6.68877 8.00833 6.45619 8.3672 6.44713 8.74399C6.44309 8.91182 6.47078 9.07891 6.52875 9.23646C6.65889 9.59018 6.99482 9.85482 7.66667 10.3841M10 6.83583C10.7698 7.4131 11.9751 7.6456 13.3333 6.11697M10 6.83583L7.66667 10.3841" stroke="#CD0683" stroke-linecap="round" stroke-linejoin="round"/>
<path d="M2.6665 12.4704L3.11865 12.578C4.27092 12.8521 5.46867 12.3279 5.99984 11.3169" stroke="#CD0683" stroke-linecap="round" stroke-linejoin="round"/>
</svg>
